<svg width="243" height="283" viewBox="0 0 243 283" fill="none" xmlns="http://www.w3.org/2000/svg">
<g filter="url(#filter0_d_100_8635)">
<rect x="6" width="231" height="271" rx="8" fill="white" shape-rendering="crispEdges"/>
<path d="M22 106H178" stroke="#FAFAFA"/>
<path d="M22 135H178" stroke="#FAFAFA"/>
<path d="M22 165H178" stroke="#FAFAFA"/>
<path d="M22 195H178" stroke="#FAFAFA"/>
<path d="M26.584 39.6H23.128V48H24.688V45.576H26.584C28.792 45.576 30.16 44.436 30.16 42.588C30.16 40.728 28.792 39.6 26.584 39.6ZM26.512 44.256H24.688V40.92H26.512C27.88 40.92 28.588 41.532 28.588 42.588C28.588 43.644 27.88 44.256 26.512 44.256ZM36.645 41.592V44.832C36.645 46.116 35.937 46.764 34.893 46.764C33.945 46.764 33.393 46.212 33.393 45.048V41.592H31.893V45.252C31.893 47.184 33.009 48.084 34.653 48.084C35.481 48.084 36.237 47.772 36.717 47.184V48H38.145V41.592H36.645ZM43.995 41.52C43.059 41.52 42.279 41.832 41.787 42.42V41.592H40.359V48H41.859V44.76C41.859 43.476 42.579 42.828 43.647 42.828C44.607 42.828 45.171 43.38 45.171 44.52V48H46.671V44.328C46.671 42.396 45.531 41.52 43.995 41.52ZM52.2558 46.584C52.0278 46.764 51.7278 46.848 51.4158 46.848C50.8398 46.848 50.5278 46.512 50.5278 45.888V42.84H52.2438V41.64H50.5278V40.176H49.0278V41.64H47.9718V42.84H49.0278V45.924C49.0278 47.34 49.8318 48.084 51.2358 48.084C51.7758 48.084 52.3158 47.94 52.6758 47.652L52.2558 46.584ZM58.8638 41.592V44.832C58.8638 46.116 58.1558 46.764 57.1118 46.764C56.1638 46.764 55.6118 46.212 55.6118 45.048V41.592H54.1118V45.252C54.1118 47.184 55.2278 48.084 56.8718 48.084C57.6998 48.084 58.4558 47.772 58.9358 47.184V48H60.3638V41.592H58.8638ZM65.0258 41.52C63.9938 41.52 62.9978 41.784 62.3138 42.312L62.9018 43.404C63.3818 43.008 64.1258 42.768 64.8458 42.768C65.9138 42.768 66.4418 43.284 66.4418 44.16V44.256H64.7858C62.8418 44.256 62.1218 45.096 62.1218 46.164C62.1218 47.28 63.0458 48.084 64.5098 48.084C65.4698 48.084 66.1658 47.772 66.5258 47.22V48H67.9418V44.244C67.9418 42.396 66.8738 41.52 65.0258 41.52ZM64.8218 46.992C64.0538 46.992 63.5978 46.644 63.5978 46.104C63.5978 45.636 63.8738 45.252 64.8938 45.252H66.4418V45.996C66.1898 46.656 65.5538 46.992 64.8218 46.992ZM73.1154 48.084C74.3634 48.084 75.3594 47.544 75.8514 46.584L74.6994 45.912C74.3154 46.524 73.7394 46.8 73.1034 46.8C71.9994 46.8 71.1594 46.044 71.1594 44.796C71.1594 43.56 71.9994 42.792 73.1034 42.792C73.7394 42.792 74.3154 43.068 74.6994 43.68L75.8514 43.008C75.3594 42.036 74.3634 41.52 73.1154 41.52C71.0874 41.52 69.6474 42.876 69.6474 44.796C69.6474 46.716 71.0874 48.084 73.1154 48.084ZM78.1541 40.536C78.7181 40.536 79.1141 40.128 79.1141 39.6C79.1141 39.108 78.7061 38.736 78.1541 38.736C77.6021 38.736 77.1941 39.132 77.1941 39.636C77.1941 40.14 77.6021 40.536 78.1541 40.536ZM77.3981 48H78.8981V41.592H77.3981V48ZM82.9768 40.716H84.2728L86.3608 39.072H84.5968L82.9768 40.716ZM83.9968 48.084C85.9888 48.084 87.4168 46.716 87.4168 44.796C87.4168 42.876 85.9888 41.52 83.9968 41.52C82.0288 41.52 80.5888 42.876 80.5888 44.796C80.5888 46.716 82.0288 48.084 83.9968 48.084ZM83.9968 46.8C82.9168 46.8 82.1008 46.02 82.1008 44.796C82.1008 43.572 82.9168 42.792 83.9968 42.792C85.0888 42.792 85.9048 43.572 85.9048 44.796C85.9048 46.02 85.0888 46.8 83.9968 46.8ZM92.7372 41.52C91.8012 41.52 91.0212 41.832 90.5292 42.42V41.592H89.1012V48H90.6012V44.76C90.6012 43.476 91.3212 42.828 92.3892 42.828C93.3492 42.828 93.9132 43.38 93.9132 44.52V48H95.4132V44.328C95.4132 42.396 94.2732 41.52 92.7372 41.52ZM107.156 44.832C107.156 42.828 105.788 41.52 103.916 41.52C102.008 41.52 100.604 42.888 100.604 44.796C100.604 46.704 101.996 48.084 104.144 48.084C105.248 48.084 106.148 47.724 106.724 47.04L105.92 46.116C105.464 46.584 104.9 46.812 104.18 46.812C103.064 46.812 102.284 46.212 102.104 45.276H107.132C107.144 45.132 107.156 44.952 107.156 44.832ZM103.916 42.72C104.9 42.72 105.608 43.356 105.728 44.28H102.092C102.236 43.344 102.944 42.72 103.916 42.72ZM112.483 41.52C111.547 41.52 110.767 41.832 110.275 42.42V41.592H108.847V48H110.347V44.76C110.347 43.476 111.067 42.828 112.135 42.828C113.095 42.828 113.659 43.38 113.659 44.52V48H115.159V44.328C115.159 42.396 114.019 41.52 112.483 41.52ZM120.744 46.584C120.516 46.764 120.216 46.848 119.904 46.848C119.328 46.848 119.016 46.512 119.016 45.888V42.84H120.732V41.64H119.016V40.176H117.516V41.64H116.46V42.84H117.516V45.924C117.516 47.34 118.32 48.084 119.724 48.084C120.264 48.084 120.804 47.94 121.164 47.652L120.744 46.584ZM124.076 42.528V41.592H122.648V48H124.148V44.892C124.148 43.584 124.868 42.912 126.008 42.912C126.116 42.912 126.224 42.924 126.356 42.948V41.52C125.288 41.52 124.508 41.856 124.076 42.528ZM133.844 44.832C133.844 42.828 132.476 41.52 130.604 41.52C128.696 41.52 127.292 42.888 127.292 44.796C127.292 46.704 128.684 48.084 130.832 48.084C131.936 48.084 132.836 47.724 133.412 47.04L132.608 46.116C132.152 46.584 131.588 46.812 130.868 46.812C129.752 46.812 128.972 46.212 128.792 45.276H133.82C133.832 45.132 133.844 44.952 133.844 44.832ZM130.604 42.72C131.588 42.72 132.296 43.356 132.416 44.28H128.78C128.924 43.344 129.632 42.72 130.604 42.72ZM141.549 41.52C140.517 41.52 139.521 41.784 138.837 42.312L139.425 43.404C139.905 43.008 140.649 42.768 141.369 42.768C142.437 42.768 142.965 43.284 142.965 44.16V44.256H141.309C139.365 44.256 138.645 45.096 138.645 46.164C138.645 47.28 139.569 48.084 141.033 48.084C141.993 48.084 142.689 47.772 143.049 47.22V48H144.465V44.244C144.465 42.396 143.397 41.52 141.549 41.52ZM141.345 46.992C140.577 46.992 140.121 46.644 140.121 46.104C140.121 45.636 140.397 45.252 141.417 45.252H142.965V45.996C142.713 46.656 142.077 46.992 141.345 46.992ZM148.068 42.528V41.592H146.64V48H148.14V44.892C148.14 43.584 148.86 42.912 150 42.912C150.108 42.912 150.216 42.924 150.348 42.948V41.52C149.28 41.52 148.5 41.856 148.068 42.528ZM157.836 44.832C157.836 42.828 156.468 41.52 154.596 41.52C152.688 41.52 151.284 42.888 151.284 44.796C151.284 46.704 152.676 48.084 154.824 48.084C155.928 48.084 156.828 47.724 157.404 47.04L156.6 46.116C156.144 46.584 155.58 46.812 154.86 46.812C153.744 46.812 152.964 46.212 152.784 45.276H157.812C157.824 45.132 157.836 44.952 157.836 44.832ZM154.596 42.72C155.58 42.72 156.288 43.356 156.408 44.28H152.772C152.916 43.344 153.624 42.72 154.596 42.72ZM161.799 41.52C160.767 41.52 159.771 41.784 159.087 42.312L159.675 43.404C160.155 43.008 160.899 42.768 161.619 42.768C162.687 42.768 163.215 43.284 163.215 44.16V44.256H161.559C159.615 44.256 158.895 45.096 158.895 46.164C158.895 47.28 159.819 48.084 161.283 48.084C162.243 48.084 162.939 47.772 163.299 47.22V48H164.715V44.244C164.715 42.396 163.647 41.52 161.799 41.52ZM161.595 46.992C160.827 46.992 160.371 46.644 160.371 46.104C160.371 45.636 160.647 45.252 161.667 45.252H163.215V45.996C162.963 46.656 162.327 46.992 161.595 46.992ZM168.87 48.084C170.67 48.084 171.774 47.304 171.774 46.104C171.774 43.596 167.814 44.748 167.814 43.452C167.814 43.032 168.246 42.732 169.158 42.732C169.77 42.732 170.382 42.852 170.994 43.212L171.57 42.072C170.994 41.724 170.022 41.52 169.17 41.52C167.442 41.52 166.35 42.312 166.35 43.524C166.35 46.08 170.31 44.928 170.31 46.152C170.31 46.596 169.914 46.86 168.966 46.86C168.162 46.86 167.298 46.596 166.734 46.224L166.158 47.364C166.734 47.772 167.802 48.084 168.87 48.084Z" fill="#283252"/>
<path d="M50.1143 88.2031C50.1143 88.0371 50.0882 87.8906 50.0361 87.7637C49.9873 87.6335 49.8994 87.5163 49.7725 87.4121C49.6488 87.3079 49.4762 87.2087 49.2549 87.1143C49.0368 87.0199 48.7601 86.9238 48.4248 86.8262C48.0732 86.722 47.7559 86.6064 47.4727 86.4795C47.1895 86.3493 46.9469 86.2012 46.7451 86.0352C46.5433 85.8691 46.3887 85.6787 46.2812 85.4639C46.1738 85.249 46.1201 85.0033 46.1201 84.7266C46.1201 84.4499 46.1771 84.1943 46.291 83.96C46.4049 83.7256 46.5677 83.5221 46.7793 83.3496C46.9941 83.1738 47.2497 83.0371 47.5459 82.9395C47.8421 82.8418 48.1725 82.793 48.5371 82.793C49.071 82.793 49.5234 82.8955 49.8945 83.1006C50.2689 83.3024 50.5537 83.5677 50.749 83.8965C50.9443 84.222 51.042 84.5703 51.042 84.9414H50.1045C50.1045 84.6745 50.0475 84.4385 49.9336 84.2334C49.8197 84.0251 49.6471 83.8623 49.416 83.7451C49.1849 83.6247 48.8919 83.5645 48.5371 83.5645C48.2018 83.5645 47.9251 83.6149 47.707 83.7158C47.4889 83.8167 47.3262 83.9535 47.2188 84.126C47.1146 84.2985 47.0625 84.4954 47.0625 84.7168C47.0625 84.8665 47.0934 85.0033 47.1553 85.127C47.2204 85.2474 47.3197 85.3597 47.4531 85.4639C47.5898 85.568 47.7624 85.6641 47.9707 85.752C48.1823 85.8398 48.4346 85.9245 48.7275 86.0059C49.1312 86.1198 49.4795 86.2467 49.7725 86.3867C50.0654 86.5267 50.3063 86.6846 50.4951 86.8604C50.6872 87.0329 50.8288 87.2298 50.9199 87.4512C51.0143 87.6693 51.0615 87.9167 51.0615 88.1934C51.0615 88.4831 51.0029 88.7451 50.8857 88.9795C50.7686 89.2139 50.6009 89.4141 50.3828 89.5801C50.1647 89.7461 49.9027 89.8747 49.5967 89.9658C49.2939 90.0537 48.9554 90.0977 48.5811 90.0977C48.2523 90.0977 47.9284 90.0521 47.6094 89.9609C47.2936 89.8698 47.0055 89.7331 46.7451 89.5508C46.488 89.3685 46.2812 89.1439 46.125 88.877C45.972 88.6068 45.8955 88.2943 45.8955 87.9395H46.833C46.833 88.1836 46.8802 88.3936 46.9746 88.5693C47.069 88.7419 47.1976 88.8851 47.3604 88.999C47.5264 89.113 47.7135 89.1976 47.9219 89.2529C48.1335 89.305 48.3532 89.3311 48.5811 89.3311C48.9098 89.3311 49.1882 89.2855 49.416 89.1943C49.6439 89.1032 49.8164 88.973 49.9336 88.8037C50.054 88.6344 50.1143 88.4342 50.1143 88.2031ZM57.7666 86.46V89.0625C57.6787 89.1927 57.5387 89.3392 57.3467 89.502C57.1546 89.6615 56.8893 89.8014 56.5508 89.9219C56.2155 90.0391 55.7826 90.0977 55.252 90.0977C54.819 90.0977 54.4202 90.0228 54.0557 89.873C53.6943 89.7201 53.3802 89.4987 53.1133 89.209C52.8496 88.916 52.6445 88.5612 52.498 88.1445C52.3548 87.7246 52.2832 87.2493 52.2832 86.7188V86.167C52.2832 85.6364 52.3451 85.1628 52.4688 84.7461C52.5957 84.3294 52.7812 83.9762 53.0254 83.6865C53.2695 83.3936 53.569 83.1722 53.9238 83.0225C54.2786 82.8695 54.6855 82.793 55.1445 82.793C55.6882 82.793 56.1423 82.8874 56.5068 83.0762C56.8747 83.2617 57.1611 83.5189 57.3662 83.8477C57.5745 84.1764 57.708 84.5508 57.7666 84.9707H56.8242C56.7819 84.7135 56.6973 84.4792 56.5703 84.2676C56.4466 84.056 56.2692 83.8867 56.0381 83.7598C55.807 83.6296 55.5091 83.5645 55.1445 83.5645C54.8158 83.5645 54.5309 83.6247 54.29 83.7451C54.0492 83.8656 53.8506 84.0381 53.6943 84.2627C53.5381 84.4873 53.4209 84.7591 53.3428 85.0781C53.2679 85.3971 53.2305 85.7568 53.2305 86.1572V86.7188C53.2305 87.1289 53.2777 87.4951 53.3721 87.8174C53.4697 88.1396 53.6081 88.4147 53.7871 88.6426C53.9661 88.8672 54.1794 89.0381 54.4268 89.1553C54.6774 89.2725 54.9541 89.3311 55.2568 89.3311C55.5921 89.3311 55.8639 89.3034 56.0723 89.248C56.2806 89.1895 56.4434 89.1211 56.5605 89.043C56.6777 88.9616 56.7673 88.8851 56.8291 88.8135V87.2217H55.1836V86.46H57.7666Z" fill="#16C59B"/>
<path d="M43.749 197.258V198H39.0957V197.351L41.4248 194.758C41.7113 194.439 41.9326 194.169 42.0889 193.947C42.2484 193.723 42.359 193.522 42.4209 193.347C42.486 193.168 42.5186 192.985 42.5186 192.8C42.5186 192.565 42.4697 192.354 42.3721 192.165C42.2777 191.973 42.1377 191.82 41.9521 191.706C41.7666 191.592 41.542 191.535 41.2783 191.535C40.9626 191.535 40.6989 191.597 40.4873 191.721C40.279 191.841 40.1227 192.01 40.0186 192.229C39.9144 192.447 39.8623 192.697 39.8623 192.98H38.959C38.959 192.58 39.0469 192.214 39.2227 191.882C39.3984 191.55 39.6589 191.286 40.0039 191.091C40.349 190.892 40.7738 190.793 41.2783 190.793C41.7275 190.793 42.1117 190.873 42.4307 191.032C42.7497 191.188 42.9938 191.41 43.1631 191.696C43.3356 191.979 43.4219 192.312 43.4219 192.692C43.4219 192.901 43.3861 193.112 43.3145 193.327C43.2461 193.539 43.1501 193.75 43.0264 193.962C42.9059 194.174 42.7643 194.382 42.6016 194.587C42.4421 194.792 42.2712 194.994 42.0889 195.192L40.1846 197.258H43.749ZM49.4287 193.879V194.963C49.4287 195.546 49.3766 196.037 49.2725 196.438C49.1683 196.838 49.0186 197.16 48.8232 197.404C48.6279 197.648 48.3919 197.826 48.1152 197.937C47.8418 198.044 47.5326 198.098 47.1875 198.098C46.9141 198.098 46.6618 198.063 46.4307 197.995C46.1995 197.927 45.9912 197.818 45.8057 197.668C45.6234 197.515 45.4671 197.316 45.3369 197.072C45.2067 196.828 45.1074 196.532 45.0391 196.184C44.9707 195.835 44.9365 195.428 44.9365 194.963V193.879C44.9365 193.296 44.9886 192.808 45.0928 192.414C45.2002 192.02 45.3516 191.704 45.5469 191.467C45.7422 191.226 45.9766 191.053 46.25 190.949C46.5267 190.845 46.8359 190.793 47.1777 190.793C47.4544 190.793 47.7083 190.827 47.9395 190.896C48.1738 190.961 48.3822 191.066 48.5645 191.213C48.7467 191.356 48.9014 191.548 49.0283 191.789C49.1585 192.027 49.2578 192.318 49.3262 192.663C49.3945 193.008 49.4287 193.413 49.4287 193.879ZM48.5205 195.109V193.728C48.5205 193.409 48.501 193.129 48.4619 192.888C48.4261 192.644 48.3724 192.435 48.3008 192.263C48.2292 192.09 48.138 191.95 48.0273 191.843C47.9199 191.735 47.7946 191.657 47.6514 191.608C47.5114 191.556 47.3535 191.53 47.1777 191.53C46.9629 191.53 46.7725 191.571 46.6064 191.652C46.4404 191.73 46.3005 191.856 46.1865 192.028C46.0758 192.201 45.9912 192.427 45.9326 192.707C45.874 192.987 45.8447 193.327 45.8447 193.728V195.109C45.8447 195.428 45.8626 195.71 45.8984 195.954C45.9375 196.198 45.9945 196.41 46.0693 196.589C46.1442 196.765 46.2354 196.91 46.3428 197.023C46.4502 197.137 46.5739 197.222 46.7139 197.277C46.8571 197.329 47.015 197.355 47.1875 197.355C47.4089 197.355 47.6025 197.313 47.7686 197.229C47.9346 197.144 48.0729 197.012 48.1836 196.833C48.2975 196.651 48.3822 196.418 48.4375 196.135C48.4928 195.848 48.5205 195.507 48.5205 195.109ZM50.9531 197.521C50.9531 197.368 51.0003 197.24 51.0947 197.136C51.1924 197.028 51.3324 196.975 51.5146 196.975C51.6969 196.975 51.8353 197.028 51.9297 197.136C52.0273 197.24 52.0762 197.368 52.0762 197.521C52.0762 197.671 52.0273 197.798 51.9297 197.902C51.8353 198.007 51.6969 198.059 51.5146 198.059C51.3324 198.059 51.1924 198.007 51.0947 197.902C51.0003 197.798 50.9531 197.671 50.9531 197.521ZM55.0459 194.001H55.6904C56.0062 194.001 56.2666 193.949 56.4717 193.845C56.68 193.737 56.8346 193.592 56.9355 193.41C57.0397 193.225 57.0918 193.016 57.0918 192.785C57.0918 192.512 57.0462 192.282 56.9551 192.097C56.8639 191.911 56.7272 191.771 56.5449 191.677C56.3626 191.582 56.1315 191.535 55.8516 191.535C55.5977 191.535 55.373 191.586 55.1777 191.687C54.9857 191.784 54.8343 191.924 54.7236 192.106C54.6162 192.289 54.5625 192.504 54.5625 192.751H53.6592C53.6592 192.39 53.7503 192.061 53.9326 191.765C54.1149 191.468 54.3704 191.232 54.6992 191.057C55.0312 190.881 55.4154 190.793 55.8516 190.793C56.2812 190.793 56.6572 190.869 56.9795 191.022C57.3018 191.172 57.5524 191.397 57.7314 191.696C57.9105 191.993 58 192.362 58 192.805C58 192.984 57.9577 193.176 57.873 193.381C57.7917 193.583 57.6631 193.771 57.4873 193.947C57.3148 194.123 57.0902 194.268 56.8135 194.382C56.5368 194.493 56.2048 194.548 55.8174 194.548H55.0459V194.001ZM55.0459 194.743V194.201H55.8174C56.2699 194.201 56.6442 194.255 56.9404 194.362C57.2367 194.47 57.4694 194.613 57.6387 194.792C57.8112 194.971 57.9316 195.168 58 195.383C58.0716 195.594 58.1074 195.806 58.1074 196.018C58.1074 196.35 58.0505 196.644 57.9365 196.901C57.8258 197.159 57.668 197.377 57.4629 197.556C57.2611 197.735 57.0234 197.87 56.75 197.961C56.4766 198.052 56.1787 198.098 55.8564 198.098C55.5472 198.098 55.2559 198.054 54.9824 197.966C54.7122 197.878 54.473 197.751 54.2646 197.585C54.0563 197.416 53.8936 197.209 53.7764 196.965C53.6592 196.717 53.6006 196.436 53.6006 196.12H54.5039C54.5039 196.368 54.5576 196.584 54.665 196.77C54.7757 196.955 54.932 197.1 55.1338 197.204C55.3389 197.305 55.5798 197.355 55.8564 197.355C56.1331 197.355 56.3708 197.308 56.5693 197.214C56.7712 197.116 56.9258 196.97 57.0332 196.774C57.1439 196.579 57.1992 196.333 57.1992 196.037C57.1992 195.741 57.1374 195.498 57.0137 195.31C56.89 195.118 56.7142 194.976 56.4863 194.885C56.2617 194.79 55.9964 194.743 55.6904 194.743H55.0459ZM59.5244 192.634V192.258C59.5244 191.988 59.583 191.742 59.7002 191.521C59.8174 191.299 59.985 191.122 60.2031 190.988C60.4212 190.855 60.68 190.788 60.9795 190.788C61.2855 190.788 61.5459 190.855 61.7607 190.988C61.9788 191.122 62.1465 191.299 62.2637 191.521C62.3809 191.742 62.4395 191.988 62.4395 192.258V192.634C62.4395 192.897 62.3809 193.14 62.2637 193.361C62.1497 193.583 61.9837 193.76 61.7656 193.894C61.5508 194.027 61.292 194.094 60.9893 194.094C60.6865 194.094 60.4245 194.027 60.2031 193.894C59.985 193.76 59.8174 193.583 59.7002 193.361C59.583 193.14 59.5244 192.897 59.5244 192.634ZM60.2031 192.258V192.634C60.2031 192.784 60.2308 192.925 60.2861 193.059C60.3447 193.192 60.4326 193.301 60.5498 193.386C60.667 193.467 60.8135 193.508 60.9893 193.508C61.165 193.508 61.3099 193.467 61.4238 193.386C61.5378 193.301 61.6224 193.192 61.6777 193.059C61.7331 192.925 61.7607 192.784 61.7607 192.634V192.258C61.7607 192.105 61.7314 191.962 61.6729 191.828C61.6175 191.691 61.5312 191.582 61.4141 191.501C61.3001 191.416 61.1553 191.374 60.9795 191.374C60.807 191.374 60.6621 191.416 60.5449 191.501C60.431 191.582 60.3447 191.691 60.2861 191.828C60.2308 191.962 60.2031 192.105 60.2031 192.258ZM62.9863 196.638V196.257C62.9863 195.99 63.0449 195.746 63.1621 195.524C63.2793 195.303 63.4469 195.126 63.665 194.992C63.8831 194.859 64.1419 194.792 64.4414 194.792C64.7474 194.792 65.0078 194.859 65.2227 194.992C65.4408 195.126 65.6084 195.303 65.7256 195.524C65.8428 195.746 65.9014 195.99 65.9014 196.257V196.638C65.9014 196.905 65.8428 197.149 65.7256 197.37C65.6117 197.591 65.4456 197.769 65.2275 197.902C65.0127 198.036 64.7539 198.103 64.4512 198.103C64.1484 198.103 63.888 198.036 63.6699 197.902C63.4518 197.769 63.2826 197.591 63.1621 197.37C63.0449 197.149 62.9863 196.905 62.9863 196.638ZM63.665 196.257V196.638C63.665 196.787 63.6927 196.931 63.748 197.067C63.8066 197.201 63.8945 197.31 64.0117 197.395C64.1289 197.476 64.2754 197.517 64.4512 197.517C64.627 197.517 64.7718 197.476 64.8857 197.395C65.0029 197.31 65.0892 197.201 65.1445 197.067C65.1999 196.934 65.2275 196.791 65.2275 196.638V196.257C65.2275 196.104 65.1982 195.961 65.1396 195.827C65.0843 195.694 64.998 195.586 64.8809 195.505C64.7669 195.42 64.6204 195.378 64.4414 195.378C64.2689 195.378 64.124 195.42 64.0068 195.505C63.8929 195.586 63.8066 195.694 63.748 195.827C63.6927 195.961 63.665 196.104 63.665 196.257ZM64.666 191.901L61.1943 197.458L60.6865 197.136L64.1582 191.579L64.666 191.901Z" fill="#5A5A5A"/>
<rect x="22" y="210" width="61" height="29" fill="#16C59B"/>
<path d="M116.325 82.8906H118.679C119.213 82.8906 119.663 82.972 120.031 83.1348C120.402 83.2975 120.684 83.5384 120.876 83.8574C121.071 84.1732 121.169 84.5622 121.169 85.0244C121.169 85.3499 121.102 85.6478 120.969 85.918C120.839 86.1849 120.65 86.4128 120.402 86.6016C120.158 86.7871 119.865 86.9255 119.523 87.0166L119.26 87.1191H117.048L117.038 86.3525H118.708C119.047 86.3525 119.328 86.2939 119.553 86.1768C119.777 86.0563 119.947 85.8952 120.061 85.6934C120.174 85.4915 120.231 85.2686 120.231 85.0244C120.231 84.751 120.178 84.5117 120.07 84.3066C119.963 84.1016 119.794 83.9437 119.562 83.833C119.335 83.7191 119.04 83.6621 118.679 83.6621H117.268V90H116.325V82.8906ZM120.48 90L118.752 86.7773L119.733 86.7725L121.486 89.9414V90H120.48ZM124.974 82.8906V90H124.046V82.8906H124.974ZM127.259 82.8906V83.6621H121.766V82.8906H127.259Z" fill="#16C59B"/>
<path d="M112.56 98.8516V106H111.656V99.9795L109.835 100.644V99.8281L112.418 98.8516H112.56ZM119.929 101.879V102.963C119.929 103.546 119.877 104.037 119.772 104.438C119.668 104.838 119.519 105.16 119.323 105.404C119.128 105.648 118.892 105.826 118.615 105.937C118.342 106.044 118.033 106.098 117.688 106.098C117.414 106.098 117.162 106.063 116.931 105.995C116.7 105.927 116.491 105.818 116.306 105.668C116.123 105.515 115.967 105.316 115.837 105.072C115.707 104.828 115.607 104.532 115.539 104.184C115.471 103.835 115.437 103.428 115.437 102.963V101.879C115.437 101.296 115.489 100.808 115.593 100.414C115.7 100.02 115.852 99.7044 116.047 99.4668C116.242 99.2259 116.477 99.0534 116.75 98.9492C117.027 98.8451 117.336 98.793 117.678 98.793C117.954 98.793 118.208 98.8271 118.439 98.8955C118.674 98.9606 118.882 99.0664 119.064 99.2129C119.247 99.3561 119.401 99.5482 119.528 99.7891C119.659 100.027 119.758 100.318 119.826 100.663C119.895 101.008 119.929 101.413 119.929 101.879ZM119.021 103.109V101.728C119.021 101.409 119.001 101.129 118.962 100.888C118.926 100.644 118.872 100.435 118.801 100.263C118.729 100.09 118.638 99.9502 118.527 99.8428C118.42 99.7354 118.295 99.6572 118.151 99.6084C118.011 99.5563 117.854 99.5303 117.678 99.5303C117.463 99.5303 117.272 99.571 117.106 99.6523C116.94 99.7305 116.8 99.8558 116.687 100.028C116.576 100.201 116.491 100.427 116.433 100.707C116.374 100.987 116.345 101.327 116.345 101.728V103.109C116.345 103.428 116.363 103.71 116.398 103.954C116.438 104.198 116.494 104.41 116.569 104.589C116.644 104.765 116.735 104.91 116.843 105.023C116.95 105.137 117.074 105.222 117.214 105.277C117.357 105.329 117.515 105.355 117.688 105.355C117.909 105.355 118.103 105.313 118.269 105.229C118.435 105.144 118.573 105.012 118.684 104.833C118.798 104.651 118.882 104.418 118.938 104.135C118.993 103.848 119.021 103.507 119.021 103.109ZM125.804 101.879V102.963C125.804 103.546 125.752 104.037 125.647 104.438C125.543 104.838 125.394 105.16 125.198 105.404C125.003 105.648 124.767 105.826 124.49 105.937C124.217 106.044 123.908 106.098 123.562 106.098C123.289 106.098 123.037 106.063 122.806 105.995C122.575 105.927 122.366 105.818 122.181 105.668C121.998 105.515 121.842 105.316 121.712 105.072C121.582 104.828 121.482 104.532 121.414 104.184C121.346 103.835 121.312 103.428 121.312 102.963V101.879C121.312 101.296 121.364 100.808 121.468 100.414C121.575 100.02 121.727 99.7044 121.922 99.4668C122.117 99.2259 122.352 99.0534 122.625 98.9492C122.902 98.8451 123.211 98.793 123.553 98.793C123.829 98.793 124.083 98.8271 124.314 98.8955C124.549 98.9606 124.757 99.0664 124.939 99.2129C125.122 99.3561 125.276 99.5482 125.403 99.7891C125.534 100.027 125.633 100.318 125.701 100.663C125.77 101.008 125.804 101.413 125.804 101.879ZM124.896 103.109V101.728C124.896 101.409 124.876 101.129 124.837 100.888C124.801 100.644 124.747 100.435 124.676 100.263C124.604 100.09 124.513 99.9502 124.402 99.8428C124.295 99.7354 124.17 99.6572 124.026 99.6084C123.886 99.5563 123.729 99.5303 123.553 99.5303C123.338 99.5303 123.147 99.571 122.981 99.6523C122.815 99.7305 122.675 99.8558 122.562 100.028C122.451 100.201 122.366 100.427 122.308 100.707C122.249 100.987 122.22 101.327 122.22 101.728V103.109C122.22 103.428 122.238 103.71 122.273 103.954C122.312 104.198 122.369 104.41 122.444 104.589C122.519 104.765 122.61 104.91 122.718 105.023C122.825 105.137 122.949 105.222 123.089 105.277C123.232 105.329 123.39 105.355 123.562 105.355C123.784 105.355 123.978 105.313 124.144 105.229C124.31 105.144 124.448 105.012 124.559 104.833C124.673 104.651 124.757 104.418 124.812 104.135C124.868 103.848 124.896 103.507 124.896 103.109ZM127.138 100.634V100.258C127.138 99.9876 127.196 99.7419 127.313 99.5205C127.431 99.2992 127.598 99.1217 127.816 98.9883C128.035 98.8548 128.293 98.7881 128.593 98.7881C128.899 98.7881 129.159 98.8548 129.374 98.9883C129.592 99.1217 129.76 99.2992 129.877 99.5205C129.994 99.7419 130.053 99.9876 130.053 100.258V100.634C130.053 100.897 129.994 101.14 129.877 101.361C129.763 101.583 129.597 101.76 129.379 101.894C129.164 102.027 128.905 102.094 128.603 102.094C128.3 102.094 128.038 102.027 127.816 101.894C127.598 101.76 127.431 101.583 127.313 101.361C127.196 101.14 127.138 100.897 127.138 100.634ZM127.816 100.258V100.634C127.816 100.784 127.844 100.925 127.899 101.059C127.958 101.192 128.046 101.301 128.163 101.386C128.28 101.467 128.427 101.508 128.603 101.508C128.778 101.508 128.923 101.467 129.037 101.386C129.151 101.301 129.236 101.192 129.291 101.059C129.346 100.925 129.374 100.784 129.374 100.634V100.258C129.374 100.105 129.345 99.9616 129.286 99.8281C129.231 99.6914 129.145 99.5824 129.027 99.501C128.913 99.4163 128.769 99.374 128.593 99.374C128.42 99.374 128.275 99.4163 128.158 99.501C128.044 99.5824 127.958 99.6914 127.899 99.8281C127.844 99.9616 127.816 100.105 127.816 100.258ZM130.6 104.638V104.257C130.6 103.99 130.658 103.746 130.775 103.524C130.893 103.303 131.06 103.126 131.278 102.992C131.496 102.859 131.755 102.792 132.055 102.792C132.361 102.792 132.621 102.859 132.836 102.992C133.054 103.126 133.222 103.303 133.339 103.524C133.456 103.746 133.515 103.99 133.515 104.257V104.638C133.515 104.905 133.456 105.149 133.339 105.37C133.225 105.591 133.059 105.769 132.841 105.902C132.626 106.036 132.367 106.103 132.064 106.103C131.762 106.103 131.501 106.036 131.283 105.902C131.065 105.769 130.896 105.591 130.775 105.37C130.658 105.149 130.6 104.905 130.6 104.638ZM131.278 104.257V104.638C131.278 104.787 131.306 104.931 131.361 105.067C131.42 105.201 131.508 105.31 131.625 105.395C131.742 105.476 131.889 105.517 132.064 105.517C132.24 105.517 132.385 105.476 132.499 105.395C132.616 105.31 132.702 105.201 132.758 105.067C132.813 104.934 132.841 104.791 132.841 104.638V104.257C132.841 104.104 132.812 103.961 132.753 103.827C132.698 103.694 132.611 103.586 132.494 103.505C132.38 103.42 132.234 103.378 132.055 103.378C131.882 103.378 131.737 103.42 131.62 103.505C131.506 103.586 131.42 103.694 131.361 103.827C131.306 103.961 131.278 104.104 131.278 104.257ZM132.279 99.9014L128.808 105.458L128.3 105.136L131.771 99.5791L132.279 99.9014Z" fill="#5A5A5A"/>
<rect x="91" y="118" width="61" height="121" fill="#16C59B"/>
<path d="M189.137 89.2334V90H185.582V89.2334H189.137ZM185.768 82.8906V90H184.825V82.8906H185.768ZM195.397 86.46V89.0625C195.31 89.1927 195.17 89.3392 194.978 89.502C194.785 89.6615 194.52 89.8014 194.182 89.9219C193.846 90.0391 193.413 90.0977 192.883 90.0977C192.45 90.0977 192.051 90.0228 191.687 89.873C191.325 89.7201 191.011 89.4987 190.744 89.209C190.48 88.916 190.275 88.5612 190.129 88.1445C189.986 87.7246 189.914 87.2493 189.914 86.7188V86.167C189.914 85.6364 189.976 85.1628 190.1 84.7461C190.227 84.3294 190.412 83.9762 190.656 83.6865C190.9 83.3936 191.2 83.1722 191.555 83.0225C191.91 82.8695 192.316 82.793 192.775 82.793C193.319 82.793 193.773 82.8874 194.138 83.0762C194.506 83.2617 194.792 83.5189 194.997 83.8477C195.205 84.1764 195.339 84.5508 195.397 84.9707H194.455C194.413 84.7135 194.328 84.4792 194.201 84.2676C194.077 84.056 193.9 83.8867 193.669 83.7598C193.438 83.6296 193.14 83.5645 192.775 83.5645C192.447 83.5645 192.162 83.6247 191.921 83.7451C191.68 83.8656 191.481 84.0381 191.325 84.2627C191.169 84.4873 191.052 84.7591 190.974 85.0781C190.899 85.3971 190.861 85.7568 190.861 86.1572V86.7188C190.861 87.1289 190.909 87.4951 191.003 87.8174C191.101 88.1396 191.239 88.4147 191.418 88.6426C191.597 88.8672 191.81 89.0381 192.058 89.1553C192.308 89.2725 192.585 89.3311 192.888 89.3311C193.223 89.3311 193.495 89.3034 193.703 89.248C193.911 89.1895 194.074 89.1211 194.191 89.043C194.309 88.9616 194.398 88.8851 194.46 88.8135V87.2217H192.814V86.46H195.397Z" fill="#16C59B"/>
<path d="M185.896 183.607V184.35H180.759V183.817L183.942 178.891H184.68L183.889 180.316L181.784 183.607H185.896ZM184.904 178.891V186H184.001V178.891H184.904ZM191.429 181.879V182.963C191.429 183.546 191.377 184.037 191.272 184.438C191.168 184.838 191.019 185.16 190.823 185.404C190.628 185.648 190.392 185.826 190.115 185.937C189.842 186.044 189.533 186.098 189.188 186.098C188.914 186.098 188.662 186.063 188.431 185.995C188.2 185.927 187.991 185.818 187.806 185.668C187.623 185.515 187.467 185.316 187.337 185.072C187.207 184.828 187.107 184.532 187.039 184.184C186.971 183.835 186.937 183.428 186.937 182.963V181.879C186.937 181.296 186.989 180.808 187.093 180.414C187.2 180.02 187.352 179.704 187.547 179.467C187.742 179.226 187.977 179.053 188.25 178.949C188.527 178.845 188.836 178.793 189.178 178.793C189.454 178.793 189.708 178.827 189.939 178.896C190.174 178.961 190.382 179.066 190.564 179.213C190.747 179.356 190.901 179.548 191.028 179.789C191.159 180.027 191.258 180.318 191.326 180.663C191.395 181.008 191.429 181.413 191.429 181.879ZM190.521 183.109V181.728C190.521 181.409 190.501 181.129 190.462 180.888C190.426 180.644 190.372 180.435 190.301 180.263C190.229 180.09 190.138 179.95 190.027 179.843C189.92 179.735 189.795 179.657 189.651 179.608C189.511 179.556 189.354 179.53 189.178 179.53C188.963 179.53 188.772 179.571 188.606 179.652C188.44 179.73 188.3 179.856 188.187 180.028C188.076 180.201 187.991 180.427 187.933 180.707C187.874 180.987 187.845 181.327 187.845 181.728V183.109C187.845 183.428 187.863 183.71 187.898 183.954C187.938 184.198 187.994 184.41 188.069 184.589C188.144 184.765 188.235 184.91 188.343 185.023C188.45 185.137 188.574 185.222 188.714 185.277C188.857 185.329 189.015 185.355 189.188 185.355C189.409 185.355 189.603 185.313 189.769 185.229C189.935 185.144 190.073 185.012 190.184 184.833C190.298 184.651 190.382 184.418 190.438 184.135C190.493 183.848 190.521 183.507 190.521 183.109ZM192.763 180.634V180.258C192.763 179.988 192.821 179.742 192.938 179.521C193.056 179.299 193.223 179.122 193.441 178.988C193.66 178.855 193.918 178.788 194.218 178.788C194.524 178.788 194.784 178.855 194.999 178.988C195.217 179.122 195.385 179.299 195.502 179.521C195.619 179.742 195.678 179.988 195.678 180.258V180.634C195.678 180.897 195.619 181.14 195.502 181.361C195.388 181.583 195.222 181.76 195.004 181.894C194.789 182.027 194.53 182.094 194.228 182.094C193.925 182.094 193.663 182.027 193.441 181.894C193.223 181.76 193.056 181.583 192.938 181.361C192.821 181.14 192.763 180.897 192.763 180.634ZM193.441 180.258V180.634C193.441 180.784 193.469 180.925 193.524 181.059C193.583 181.192 193.671 181.301 193.788 181.386C193.905 181.467 194.052 181.508 194.228 181.508C194.403 181.508 194.548 181.467 194.662 181.386C194.776 181.301 194.861 181.192 194.916 181.059C194.971 180.925 194.999 180.784 194.999 180.634V180.258C194.999 180.105 194.97 179.962 194.911 179.828C194.856 179.691 194.77 179.582 194.652 179.501C194.538 179.416 194.394 179.374 194.218 179.374C194.045 179.374 193.9 179.416 193.783 179.501C193.669 179.582 193.583 179.691 193.524 179.828C193.469 179.962 193.441 180.105 193.441 180.258ZM196.225 184.638V184.257C196.225 183.99 196.283 183.746 196.4 183.524C196.518 183.303 196.685 183.126 196.903 182.992C197.121 182.859 197.38 182.792 197.68 182.792C197.986 182.792 198.246 182.859 198.461 182.992C198.679 183.126 198.847 183.303 198.964 183.524C199.081 183.746 199.14 183.99 199.14 184.257V184.638C199.14 184.905 199.081 185.149 198.964 185.37C198.85 185.591 198.684 185.769 198.466 185.902C198.251 186.036 197.992 186.103 197.689 186.103C197.387 186.103 197.126 186.036 196.908 185.902C196.69 185.769 196.521 185.591 196.4 185.37C196.283 185.149 196.225 184.905 196.225 184.638ZM196.903 184.257V184.638C196.903 184.787 196.931 184.931 196.986 185.067C197.045 185.201 197.133 185.31 197.25 185.395C197.367 185.476 197.514 185.517 197.689 185.517C197.865 185.517 198.01 185.476 198.124 185.395C198.241 185.31 198.327 185.201 198.383 185.067C198.438 184.934 198.466 184.791 198.466 184.638V184.257C198.466 184.104 198.437 183.961 198.378 183.827C198.323 183.694 198.236 183.586 198.119 183.505C198.005 183.42 197.859 183.378 197.68 183.378C197.507 183.378 197.362 183.42 197.245 183.505C197.131 183.586 197.045 183.694 196.986 183.827C196.931 183.961 196.903 184.104 196.903 184.257ZM197.904 179.901L194.433 185.458L193.925 185.136L197.396 179.579L197.904 179.901Z" fill="#5A5A5A"/>
<rect x="160" y="198" width="61" height="41" fill="#16C59B"/>
<rect x="6.5" y="0.5" width="230" height="270" rx="7.5" stroke="#EAEBEF" shape-rendering="crispEdges"/>
</g>
<defs>
<filter id="filter0_d_100_8635" x="0" y="0" width="243" height="283" filterUnits="userSpaceOnUse" color-interpolation-filters="sRGB">
<feFlood flood-opacity="0" result="BackgroundImageFix"/>
<feColorMatrix in="SourceAlpha" type="matrix" values="0 0 0 0 0 0 0 0 0 0 0 0 0 0 0 0 0 0 127 0" result="hardAlpha"/>
<feOffset dy="6"/>
<feGaussianBlur stdDeviation="3"/>
<feComposite in2="hardAlpha" operator="out"/>
<feColorMatrix type="matrix" values="0 0 0 0 0.156863 0 0 0 0 0.196078 0 0 0 0 0.321569 0 0 0 0.05 0"/>
<feBlend mode="normal" in2="BackgroundImageFix" result="effect1_dropShadow_100_8635"/>
<feBlend mode="normal" in="SourceGraphic" in2="effect1_dropShadow_100_8635" result="shape"/>
</filter>
</defs>
</svg>
