<svg width="490" height="456" viewBox="0 0 490 456" fill="none" xmlns="http://www.w3.org/2000/svg">
<g clip-path="url(#clip0_83_3402)">
<path d="M32.112 437.064H278.923C279.928 435.476 280.933 433.887 281.95 432.333C308.499 391.927 351.012 363.132 397.438 349.616C418.239 343.565 440.769 339.956 457.479 326.183C474.68 312.002 482.58 289.387 485.992 267.379C490.129 240.721 487.897 210.84 469.796 190.818C448.54 167.315 412.922 164.686 385.227 149.278C337.561 122.761 319.087 62.3794 275.721 29.2974C248.342 8.4108 211.346 0.3155 178.264 4.89466C131.299 11.3896 87.1043 42.8596 73.8412 88.9549C70.1602 101.746 68.6879 115.624 69.8214 130.319C71.9481 157.829 77.861 185.69 72.2753 212.709C66.117 242.485 46.7423 267.635 35.1619 295.753C20.7419 330.762 18.7554 370.047 24.9253 407.405C26.573 417.393 28.8751 427.415 32.112 437.053V437.064Z" fill="#15ACC0"/>
<path opacity="0.7" d="M32.112 437.064H278.923C279.928 435.476 280.933 433.887 281.95 432.333C308.499 391.927 351.012 363.132 397.438 349.616C418.239 343.565 440.769 339.956 457.479 326.183C474.68 312.002 482.58 289.387 485.992 267.379C490.129 240.721 487.897 210.84 469.796 190.818C448.54 167.315 412.922 164.686 385.227 149.278C337.562 122.761 319.087 62.3794 275.721 29.2974C248.342 8.4108 211.346 0.315499 178.264 4.89466C131.299 11.3896 87.1043 42.8596 73.8412 88.9549C70.1602 101.746 68.6879 115.624 69.8214 130.319C71.9481 157.829 77.861 185.69 72.2753 212.709C66.117 242.485 46.7423 267.635 35.1619 295.753C20.7419 330.762 18.7554 370.047 24.9253 407.405C26.573 417.393 28.8751 427.415 32.112 437.053V437.064Z" fill="white"/>
<path d="M0.58429 437.064H489.416" stroke="#263238" stroke-linecap="round" stroke-linejoin="round"/>
<path d="M277.498 65.2646V46.9246L263.755 45.7448C262.937 42.8478 261.804 40.091 260.355 37.5093L269.224 26.9726L256.253 14.0061L245.713 22.8724C243.142 21.4239 240.373 20.2908 237.474 19.4731L236.294 5.7356H217.948L216.768 19.4731C213.87 20.2908 211.112 21.4239 208.529 22.8724L197.989 14.0061L185.018 26.9726L193.887 37.5093C192.45 40.0793 191.305 42.8478 190.487 45.7448L176.745 46.9246V65.2646L190.487 66.4445C191.305 69.3415 192.438 72.0983 193.887 74.68L185.018 85.2167L197.989 98.1832L208.529 89.3169C211.1 90.7537 213.87 91.8985 216.768 92.7162L217.948 106.454H236.294L237.474 92.7162C240.373 91.8985 243.13 90.7654 245.713 89.3169L256.253 98.1832L269.224 85.2167L260.355 74.68C261.792 72.11 262.937 69.3415 263.755 66.4445L277.498 65.2646ZM227.121 77.4018C215.354 77.4018 205.807 67.8579 205.807 56.0946C205.807 44.3314 215.354 34.7875 227.121 34.7875C238.888 34.7875 248.436 44.3314 248.436 56.0946C248.436 67.8579 238.888 77.4018 227.121 77.4018Z" stroke="#263238" stroke-linecap="round" stroke-linejoin="round"/>
<path d="M474.669 244.529V235.733L468.078 235.161C467.681 233.771 467.143 232.451 466.454 231.212L470.707 226.154L464.49 219.94L459.431 224.192C458.192 223.503 456.871 222.954 455.481 222.568L454.908 215.98H446.109L445.536 222.568C444.146 222.965 442.825 223.503 441.587 224.192L436.527 219.94L430.31 226.154L434.564 231.212C433.874 232.451 433.325 233.771 432.939 235.161L426.349 235.733V244.529L432.939 245.102C433.337 246.492 433.874 247.812 434.564 249.05L430.31 254.108L436.527 260.323L441.587 256.071C442.825 256.76 444.146 257.309 445.536 257.694L446.109 264.283H454.908L455.481 257.694C456.871 257.297 458.192 256.76 459.431 256.071L464.49 260.323L470.707 254.108L466.454 249.05C467.143 247.812 467.692 246.492 468.078 245.102L474.669 244.529ZM450.514 250.347C444.87 250.347 440.29 245.768 440.29 240.125C440.29 234.483 444.87 229.904 450.514 229.904C456.159 229.904 460.739 234.483 460.739 240.125C460.739 245.768 456.159 250.347 450.514 250.347Z" stroke="#263238" stroke-linecap="round" stroke-linejoin="round"/>
<path d="M468.054 84.4339C468.452 82.6934 468.674 80.8944 468.674 79.0371C468.674 65.7902 457.935 55.0549 444.683 55.0549C442.521 55.0549 440.418 55.3469 438.42 55.8843C434.47 48.8987 426.968 44.1677 418.367 44.1677C406.144 44.1677 396.141 53.6998 395.393 65.7318C394.26 65.5216 393.103 65.3931 391.911 65.3931C382.236 65.3931 374.278 72.694 373.226 82.0743C367.547 82.2028 362.978 86.8287 362.978 92.5409C362.978 98.2532 367.664 103.019 373.46 103.019H461.44C467.225 103.019 471.922 98.335 471.922 92.5409C471.922 89.2701 470.415 86.3497 468.066 84.4223L468.054 84.4339Z" stroke="#263238" stroke-linecap="round" stroke-linejoin="round"/>
<path d="M419.676 94.994V119.233" stroke="#263238" stroke-linecap="round" stroke-linejoin="round"/>
<path d="M419.676 80.4506V90.1462" stroke="#263238" stroke-linecap="round" stroke-linejoin="round"/>
<path d="M419.676 71.3973V76.5723" stroke="#263238" stroke-linecap="round" stroke-linejoin="round"/>
<path d="M415.095 116.395L419.676 122.06L424.257 116.395" stroke="#263238" stroke-linecap="round" stroke-linejoin="round"/>
<path d="M199.987 368.716C200.384 366.975 200.606 365.176 200.606 363.319C200.606 350.072 189.867 339.337 176.616 339.337C174.454 339.337 172.351 339.629 170.352 340.166C166.403 333.18 158.901 328.449 150.3 328.449C138.077 328.449 128.074 337.982 127.326 350.014C126.193 349.803 125.036 349.675 123.844 349.675C114.168 349.675 106.21 356.976 105.159 366.356C99.4794 366.484 94.9103 371.11 94.9103 376.823C94.9103 382.535 99.5963 387.301 105.392 387.301H193.373C199.157 387.301 203.855 382.617 203.855 376.823C203.855 373.552 202.348 370.631 199.999 368.704L199.987 368.716Z" stroke="#263238" stroke-linecap="round" stroke-linejoin="round"/>
<path d="M151.62 382.733V358.494" stroke="#263238" stroke-linecap="round" stroke-linejoin="round"/>
<path d="M151.62 397.277V387.581" stroke="#263238" stroke-linecap="round" stroke-linejoin="round"/>
<path d="M151.62 406.33V401.144" stroke="#263238" stroke-linecap="round" stroke-linejoin="round"/>
<path d="M156.19 361.333L151.62 355.667L147.04 361.333" stroke="#263238" stroke-linecap="round" stroke-linejoin="round"/>
<path d="M14.011 61.1877H307.845C310.579 61.1877 312.8 63.4072 312.8 66.1407V79.9833H9.05634V66.1407C9.05634 63.4072 11.2766 61.1877 14.011 61.1877Z" fill="#15ACC0" stroke="#263238" stroke-linecap="round" stroke-linejoin="round"/>
<path d="M329.335 83.4644H22.3428V299.421H329.335V83.4644Z" fill="white" stroke="#263238" stroke-linecap="round" stroke-linejoin="round"/>
<path d="M334.044 70.5914C334.044 73.1847 331.941 75.2873 329.347 75.2873C326.752 75.2873 324.649 73.1847 324.649 70.5914C324.649 67.9981 326.752 65.8954 329.347 65.8954C331.941 65.8954 334.044 67.9981 334.044 70.5914Z" fill="white" stroke="#263238" stroke-linecap="round" stroke-linejoin="round"/>
<path d="M317.497 70.5914C317.497 73.1847 315.394 75.2873 312.8 75.2873C310.206 75.2873 308.102 73.1847 308.102 70.5914C308.102 67.9981 310.206 65.8954 312.8 65.8954C315.394 65.8954 317.497 67.9981 317.497 70.5914Z" fill="white" stroke="#263238" stroke-linecap="round" stroke-linejoin="round"/>
<path d="M300.951 70.5914C300.951 73.1847 298.847 75.2873 296.253 75.2873C293.659 75.2873 291.555 73.1847 291.555 70.5914C291.555 67.9981 293.659 65.8954 296.253 65.8954C298.847 65.8954 300.951 67.9981 300.951 70.5914Z" fill="white" stroke="#263238" stroke-linecap="round" stroke-linejoin="round"/>
<path d="M320.045 92.7279H307.88" stroke="#263238" stroke-width="2" stroke-linecap="round" stroke-linejoin="round"/>
<path d="M320.045 97.6575H307.88" stroke="#263238" stroke-width="2" stroke-linecap="round" stroke-linejoin="round"/>
<path d="M320.045 102.587H307.88" stroke="#263238" stroke-width="2" stroke-linecap="round" stroke-linejoin="round"/>
<path d="M43.6106 220.15H135.611" stroke="#263238" stroke-width="2" stroke-linecap="round" stroke-linejoin="round"/>
<path d="M43.6106 227.404H135.611" stroke="#263238" stroke-width="2" stroke-linecap="round" stroke-linejoin="round"/>
<path d="M43.6106 234.799H116.143" stroke="#263238" stroke-width="2" stroke-linecap="round" stroke-linejoin="round"/>
<path d="M238.701 85.9059V86.49" stroke="#263238" stroke-linecap="round" stroke-linejoin="round"/>
<path d="M238.701 89.9828V293.51" stroke="#263238" stroke-linecap="round" stroke-linejoin="round"/>
<path d="M238.701 295.262V295.846" stroke="#263238" stroke-linecap="round" stroke-linejoin="round"/>
<path d="M26.0472 250.989H26.6315" stroke="#263238" stroke-linecap="round" stroke-linejoin="round"/>
<path d="M30.1254 250.989H322.312" stroke="#263238" stroke-linecap="round" stroke-linejoin="round"/>
<path d="M324.053 250.989H324.637" stroke="#263238" stroke-linecap="round" stroke-linejoin="round"/>
<path d="M240.711 248.98H236.68V253.01H240.711V248.98Z" fill="white" stroke="#263238" stroke-linecap="round" stroke-linejoin="round"/>
<path d="M146.631 0.583984H89.0208C87.6185 0.583984 86.4733 1.71709 86.4733 3.13056V29.928C86.4733 31.3298 87.6068 32.4745 89.0208 32.4745H114.881L117.837 43.0346L120.794 32.4745H146.654C148.056 32.4745 149.202 31.3414 149.202 29.928V3.13056C149.202 1.72877 148.068 0.583984 146.654 0.583984H146.631Z" fill="#15ACC0" stroke="#263238" stroke-linecap="round" stroke-linejoin="round"/>
<path d="M96.0555 8.25879H139.584" stroke="#263238" stroke-width="2" stroke-linecap="round" stroke-linejoin="round"/>
<path d="M96.0555 13.7725H139.584" stroke="#263238" stroke-width="2" stroke-linecap="round" stroke-linejoin="round"/>
<path d="M96.0555 19.2861H139.584" stroke="#263238" stroke-width="2" stroke-linecap="round" stroke-linejoin="round"/>
<path d="M96.0555 24.7998H128.869" stroke="#263238" stroke-width="2" stroke-linecap="round" stroke-linejoin="round"/>
<path d="M123.131 285.123H60.4262V324.408H123.131V285.123Z" fill="#263238" stroke="#263238" stroke-linecap="round" stroke-linejoin="round"/>
<path d="M123.131 285.123H60.4262V291.092H123.131V285.123Z" fill="#15ACC0" stroke="#263238" stroke-linecap="round" stroke-linejoin="round"/>
<path d="M66.8299 296.127H82.8508" stroke="white" stroke-linecap="round" stroke-linejoin="round"/>
<path d="M74.8345 300.601H102.576" stroke="white" stroke-linecap="round" stroke-linejoin="round"/>
<path d="M71.2938 304.759H79.462" stroke="white" stroke-linecap="round" stroke-linejoin="round"/>
<path d="M74.8345 309.689H93.5198" stroke="white" stroke-linecap="round" stroke-linejoin="round"/>
<path d="M66.8299 314.151H82.8508" stroke="white" stroke-linecap="round" stroke-linejoin="round"/>
<path d="M222.61 212.277H168.775" stroke="#263238" stroke-linecap="round" stroke-linejoin="round"/>
<path d="M223.65 237.158C223.65 237.158 223.65 212.16 195.699 212.16C167.747 212.16 167.747 237.158 167.747 237.158" stroke="#263238" stroke-linecap="round" stroke-linejoin="round"/>
<path d="M223.65 239.518C224.954 239.518 226.011 238.461 226.011 237.158C226.011 235.855 224.954 234.799 223.65 234.799C222.347 234.799 221.29 235.855 221.29 237.158C221.29 238.461 222.347 239.518 223.65 239.518Z" fill="#15ACC0" stroke="#263238" stroke-linecap="round" stroke-linejoin="round"/>
<path d="M165.386 237.158C165.386 235.862 166.438 234.799 167.747 234.799C169.055 234.799 170.107 235.85 170.107 237.158C170.107 238.467 169.055 239.518 167.747 239.518C166.438 239.518 165.386 238.467 165.386 237.158Z" fill="#15ACC0" stroke="#263238" stroke-linecap="round" stroke-linejoin="round"/>
<path d="M221.582 214.227H225.719V210.092H221.582V214.227Z" fill="#15ACC0" stroke="#263238" stroke-linecap="round" stroke-linejoin="round"/>
<path d="M193.618 214.227H197.755V210.092H193.618V214.227Z" fill="#15ACC0" stroke="#263238" stroke-linecap="round" stroke-linejoin="round"/>
<path d="M165.678 214.227H169.815V210.092H165.678V214.227Z" fill="#15ACC0" stroke="#263238" stroke-linecap="round" stroke-linejoin="round"/>
<path d="M77.0548 137.083V128.824L70.8614 128.286C70.4875 126.978 69.985 125.74 69.3306 124.583L73.3271 119.841L67.4843 114L62.7399 117.995C61.583 117.341 60.3327 116.839 59.0356 116.465L58.498 110.274H50.2363L49.6988 116.465C48.39 116.839 47.1513 117.341 45.9945 117.995L41.2501 114L35.4073 119.841L39.4038 124.583C38.7494 125.74 38.2469 126.99 37.873 128.286L31.6796 128.824V137.083L37.873 137.62C38.2469 138.928 38.7494 140.167 39.4038 141.323L35.4073 146.066L41.2501 151.907L45.9945 147.911C47.1513 148.566 48.4017 149.068 49.6988 149.442L50.2363 155.633H58.498L59.0356 149.442C60.3444 149.068 61.583 148.566 62.7399 147.911L67.4843 151.907L73.3271 146.066L69.3306 141.323C69.985 140.167 70.4875 138.917 70.8614 137.62L77.0548 137.083ZM54.3613 142.55C49.0561 142.55 44.7558 138.251 44.7558 132.947C44.7558 127.644 49.0561 123.345 54.3613 123.345C59.6666 123.345 63.9669 127.644 63.9669 132.947C63.9669 138.251 59.6666 142.55 54.3613 142.55Z" fill="#15ACC0" stroke="#263238" stroke-linecap="round" stroke-linejoin="round"/>
<path d="M105.147 155.609V149.956L100.905 149.593C100.648 148.694 100.297 147.853 99.8533 147.059L102.588 143.811L98.5913 139.816L95.3427 142.55C94.5481 142.106 93.695 141.755 92.8069 141.498L92.4447 137.258H86.7888L86.4266 141.498C85.5385 141.755 84.6854 142.106 83.8908 142.55L80.6422 139.816L76.6457 143.811L79.3802 147.059C78.9361 147.853 78.5856 148.706 78.3285 149.593L74.0866 149.956V155.609L78.3285 155.972C78.5856 156.871 78.9361 157.712 79.3802 158.507L76.6457 161.754L80.6422 165.749L83.8908 163.016C84.6854 163.459 85.5385 163.81 86.4266 164.067L86.7888 168.307H92.4447L92.8069 164.067C93.7067 163.81 94.5481 163.459 95.3427 163.016L98.5913 165.749L102.588 161.754L99.8533 158.507C100.297 157.712 100.648 156.859 100.905 155.972L105.147 155.609ZM89.6168 159.348C85.9825 159.348 83.0378 156.404 83.0378 152.771C83.0378 149.138 85.9825 146.194 89.6168 146.194C93.251 146.194 96.1957 149.138 96.1957 152.771C96.1957 156.404 93.251 159.348 89.6168 159.348Z" fill="#15ACC0" stroke="#263238" stroke-linecap="round" stroke-linejoin="round"/>
<path d="M250.247 264.727H295.505" stroke="#263238" stroke-width="2" stroke-linecap="round" stroke-linejoin="round"/>
<path d="M250.247 271.981H295.505" stroke="#263238" stroke-width="2" stroke-linecap="round" stroke-linejoin="round"/>
<path d="M250.247 279.375H276.049" stroke="#263238" stroke-width="2" stroke-linecap="round" stroke-linejoin="round"/>
<path d="M190.615 282.377H166.788C163.551 282.377 160.922 279.749 160.922 276.513C160.922 273.278 163.551 270.649 166.788 270.649H190.615C193.852 270.649 196.481 273.278 196.481 276.513C196.481 279.749 193.852 282.377 190.615 282.377Z" fill="#15ACC0" stroke="#263238" stroke-linecap="round" stroke-linejoin="round"/>
<path d="M235.009 282.377H211.182C207.945 282.377 205.316 279.749 205.316 276.513C205.316 273.278 207.945 270.649 211.182 270.649H235.009C238.246 270.649 240.875 273.278 240.875 276.513C240.875 279.749 238.246 282.377 235.009 282.377Z" fill="#15ACC0" stroke="#263238" stroke-linecap="round" stroke-linejoin="round"/>
<path d="M304.082 157.058H253.554V207.569H304.082V157.058Z" fill="white" stroke="#263238" stroke-linecap="round" stroke-linejoin="round"/>
<path d="M253.554 157.058L304.082 207.569" stroke="#263238" stroke-linecap="round" stroke-linejoin="round"/>
<path d="M304.082 157.058L253.554 207.569" stroke="#263238" stroke-linecap="round" stroke-linejoin="round"/>
<path d="M358.958 127.06H296.253V166.345H358.958V127.06Z" fill="#263238" stroke="#263238" stroke-linecap="round" stroke-linejoin="round"/>
<path d="M358.958 127.06H296.253V133.029H358.958V127.06Z" fill="#15ACC0" stroke="#263238" stroke-linecap="round" stroke-linejoin="round"/>
<path d="M302.645 138.064H318.678" stroke="white" stroke-linecap="round" stroke-linejoin="round"/>
<path d="M310.661 142.526H338.403" stroke="white" stroke-linecap="round" stroke-linejoin="round"/>
<path d="M307.121 146.697H315.277" stroke="white" stroke-linecap="round" stroke-linejoin="round"/>
<path d="M310.661 151.614H329.347" stroke="white" stroke-linecap="round" stroke-linejoin="round"/>
<path d="M302.645 156.088H318.678" stroke="white" stroke-linecap="round" stroke-linejoin="round"/>
<path d="M273.373 99.7251V111.512L268.173 116.71H256.382V99.7251H273.373Z" fill="white" stroke="#263238" stroke-linecap="round" stroke-linejoin="round"/>
<path d="M273.373 111.512L268.173 116.71V111.512H273.373Z" fill="white" stroke="#263238" stroke-linecap="round" stroke-linejoin="round"/>
<path d="M92.6784 190.876V202.663L87.4783 207.861H75.6876V190.876H92.6784Z" fill="white" stroke="#263238" stroke-linecap="round" stroke-linejoin="round"/>
<path d="M92.6784 202.663L87.4783 207.861V202.663H92.6784Z" fill="white" stroke="#263238" stroke-linecap="round" stroke-linejoin="round"/>
<path d="M28.4661 263.488V275.275L23.266 280.473H11.4753V263.488H28.4661Z" fill="white" stroke="#263238" stroke-linecap="round" stroke-linejoin="round"/>
<path d="M28.4661 275.275L23.2661 280.473V275.275H28.4661Z" fill="white" stroke="#263238" stroke-linecap="round" stroke-linejoin="round"/>
<path d="M241.167 191.647C234.985 192.173 227.133 184.79 227.133 184.79C227.133 184.79 225.929 185.947 224.924 184.51C223.919 183.061 219.56 179.72 219.315 176.823C219.07 173.926 224.211 169.23 224.211 169.23C220.238 170.317 219.818 167.992 219.818 167.992C219.818 167.992 226.49 162.478 228.827 162.338C229.739 162.28 233.723 164.569 237.568 167.653C241.588 170.889 249.137 182.279 249.137 182.279C249.137 182.279 274.67 200.817 281.132 205.56C289.651 211.821 299.747 222.93 299.747 222.93C299.747 222.93 333.659 238.21 342.96 246.609L330.328 276.537C330.328 276.537 299.513 255.896 296.428 250.662C293.343 245.429 290.27 248.571 287.185 245.149C284.1 241.726 281.144 237.813 281.144 237.813C281.144 237.813 273.688 234.542 266.478 227.159C259.268 219.765 252.923 208.457 248.938 201.682C244.953 194.906 241.179 191.671 241.179 191.671L241.167 191.647Z" fill="white" stroke="#263238" stroke-linecap="round" stroke-linejoin="round"/>
<path d="M243.049 187.278C243.049 187.278 233.852 185.047 233.057 178.984C232.8 177.01 231.082 174.744 231.082 174.744C231.082 174.744 222.494 174.323 223.043 170.831L234.483 169.814C234.483 169.814 240.758 171.859 244.462 178.202" fill="white"/>
<path d="M243.049 187.278C243.049 187.278 233.852 185.047 233.057 178.984C232.8 177.01 231.082 174.744 231.082 174.744C231.082 174.744 222.494 174.323 223.043 170.831L234.483 169.814C234.483 169.814 240.758 171.859 244.462 178.202" stroke="#263238" stroke-linecap="round" stroke-linejoin="round"/>
<path d="M227.121 184.79C227.121 184.79 227.694 183.984 227.507 182.314C227.507 182.314 230.031 181.858 229.75 179.615C229.75 179.615 233.49 179.16 231.082 174.744" stroke="#263238" stroke-linecap="round" stroke-linejoin="round"/>
<path d="M229.75 179.627C229.75 179.627 224.726 175.889 224.153 174.195" stroke="#263238" stroke-linecap="round" stroke-linejoin="round"/>
<path d="M227.518 182.314C227.518 182.314 222.155 179.054 222.061 177.139" stroke="#263238" stroke-linecap="round" stroke-linejoin="round"/>
<path d="M228.734 165.516C228.734 165.516 227.028 168.576 224.211 169.219" stroke="#263238" stroke-linecap="round" stroke-linejoin="round"/>
<path d="M227.892 166.719C227.892 166.719 229.26 167.408 230.416 168.389" stroke="#263238" stroke-linecap="round" stroke-linejoin="round"/>
<path d="M423.743 270.182C423.743 270.182 403.492 261.374 382.96 256.561C362.428 251.749 329.253 247.473 329.253 247.473C329.253 247.473 338.391 340.692 335.984 346.299C333.577 351.906 319.133 370.737 319.133 370.737C319.133 370.737 397.298 401.202 410.924 403.795C424.549 406.389 417.444 359.113 417.444 359.113C417.444 359.113 431.759 299.024 423.743 270.182Z" fill="#263238"/>
<path d="M395.697 260.171C395.697 260.171 397.555 263.71 392.671 265.509C380.015 270.182 366.53 266.058 367.967 261.105C368.517 259.213 371.648 261.105 371.45 254.038C371.426 253.127 371.099 252.064 370.597 250.931C369.825 249.179 368.61 247.263 367.383 245.546C365.245 242.555 363.048 240.137 363.048 240.137C363.048 240.137 383.135 227.323 398.034 240.137C398.034 240.137 392.495 242.941 395.697 260.171Z" fill="white" stroke="#263238" stroke-linecap="round" stroke-linejoin="round"/>
<path d="M420.588 426.2C412.676 439.085 372.536 445.136 350.626 444.564C328.727 444.003 265.672 414.157 261.395 407.837C257.433 401.985 247.699 382.64 262.704 370.947C263.896 370.024 265.228 369.148 266.747 368.33C277.019 362.77 345.332 380.304 345.332 380.304C345.332 380.304 349.563 377.629 351.117 377.827C355.885 378.435 359.262 382.29 368.926 385.035C375.668 386.962 394.073 379.556 405.829 385.923C407.114 386.612 408.306 387.464 409.405 388.516C420.389 399.006 428.487 413.316 420.588 426.2Z" fill="#15ACC0"/>
<path opacity="0.3" d="M405.829 385.923C393.781 385.116 383.042 387.64 375.54 392.067C366.647 397.324 324.649 417.544 324.649 417.544C324.742 415.372 327.08 410.991 327.08 410.991C323.13 407.475 312.8 404.741 312.8 404.741C304.795 397.908 273.034 377.523 262.704 370.947C263.896 370.024 265.228 369.148 266.747 368.33C277.019 362.77 345.332 380.304 345.332 380.304C345.332 380.304 349.563 377.629 351.117 377.827C355.885 378.435 359.262 382.29 368.926 385.035C375.668 386.962 394.073 379.556 405.829 385.923Z" fill="black"/>
<path d="M420.588 426.2C412.676 439.085 372.536 445.136 350.626 444.564C328.727 444.003 265.672 414.157 261.395 407.837C257.433 401.985 247.699 382.64 262.704 370.947C263.896 370.024 265.228 369.148 266.747 368.33C277.019 362.77 345.332 380.304 345.332 380.304C345.332 380.304 349.563 377.629 351.117 377.827C355.885 378.435 359.262 382.29 368.926 385.035C375.668 386.962 394.073 379.556 405.829 385.923C407.114 386.612 408.306 387.464 409.405 388.516C420.389 399.006 428.487 413.316 420.588 426.2V426.2Z" stroke="#263238" stroke-linecap="round" stroke-linejoin="round"/>
<path d="M408.259 437.823L409.264 442.227C409.264 442.227 406.577 449.855 394.762 451.094C382.948 452.332 375.949 454.96 370.269 455.299C364.59 455.638 361.283 455.159 361.283 455.159L360.126 453.43L408.259 437.835V437.823Z" fill="white" stroke="#263238" stroke-linecap="round" stroke-linejoin="round"/>
<path d="M339.665 437.356L360.138 453.418C360.138 453.418 376.007 452.157 389.492 449.038C399.191 446.783 407.663 443.559 408.131 439.155C408.844 432.45 401.669 430.616 393.15 430.873C391.561 430.908 389.925 431.037 388.277 431.2C374.64 432.66 357.298 425.126 357.298 425.126L339.677 437.356H339.665Z" fill="#263238"/>
<path opacity="0.3" d="M408.131 439.003C404.45 440.452 399.881 442.461 396.749 444.599C396.749 444.599 377.737 454.376 348.523 444.307L339.665 437.356L357.287 425.126C357.287 425.126 374.617 432.66 388.265 431.188C389.913 431.013 391.549 430.896 393.138 430.861C401.599 430.593 408.715 432.403 408.131 438.992V439.003Z" fill="black"/>
<path d="M339.665 437.356L360.138 453.418C360.138 453.418 376.007 452.157 389.492 449.038C399.191 446.783 407.663 443.559 408.131 439.155C408.844 432.45 401.669 430.616 393.15 430.873C391.561 430.908 389.925 431.037 388.277 431.2C374.64 432.66 357.298 425.126 357.298 425.126L339.677 437.356H339.665Z" stroke="#263238" stroke-linecap="round" stroke-linejoin="round"/>
<path d="M358.747 443.688C355.055 444.295 359.11 451.83 364.111 449.54C369.113 447.251 362.44 443.08 358.747 443.688Z" fill="white"/>
<path opacity="0.2" d="M365.677 448.325C363.153 448.022 360.5 447.566 357.731 446.935C357.018 445.452 357.182 443.933 358.759 443.688C361.856 443.185 367.068 446.036 365.689 448.325H365.677Z" fill="black"/>
<path d="M358.747 443.688C355.055 444.295 359.11 451.83 364.111 449.54C369.113 447.251 362.44 443.08 358.747 443.688Z" stroke="#263238" stroke-linecap="round" stroke-linejoin="round"/>
<path d="M389.492 449.026C399.191 446.783 407.663 443.559 408.131 439.155C408.844 432.45 401.669 430.616 393.15 430.873C392.776 431.235 384.514 439.214 389.504 449.026H389.492Z" fill="white"/>
<path opacity="0.3" d="M408.131 439.003C404.45 440.452 399.881 442.461 396.749 444.599C396.749 444.599 393.909 446.059 388.744 447.274C385.472 438.279 392.788 431.2 393.138 430.873C401.599 430.604 408.715 432.415 408.131 439.003Z" fill="black"/>
<path d="M389.492 449.026C399.191 446.783 407.663 443.559 408.131 439.155C408.844 432.45 401.669 430.616 393.15 430.873C392.776 431.235 384.514 439.214 389.504 449.026H389.492Z" stroke="#263238" stroke-linecap="round" stroke-linejoin="round"/>
<path d="M382.563 440.697C382.563 440.697 382.598 440.697 382.621 440.697C383.182 440.721 383.661 440.288 383.685 439.739C383.883 435.511 387.143 432.076 387.179 432.041C387.564 431.632 387.552 431.002 387.143 430.604C386.746 430.219 386.103 430.231 385.718 430.628C385.566 430.791 381.908 434.634 381.663 439.634C381.64 440.172 382.037 440.639 382.563 440.686V440.697Z" fill="white" stroke="#263238" stroke-linecap="round" stroke-linejoin="round"/>
<path d="M378.508 440.942C378.508 440.942 378.566 440.942 378.59 440.942C379.151 440.942 379.618 440.51 379.618 439.95C379.7 435.686 382.691 431.983 382.715 431.948C383.065 431.515 383.007 430.873 382.574 430.523C382.142 430.172 381.511 430.231 381.149 430.663C381.009 430.838 377.69 434.926 377.585 439.915C377.585 440.44 377.97 440.884 378.484 440.942H378.508Z" fill="white" stroke="#263238" stroke-linecap="round" stroke-linejoin="round"/>
<path d="M373.658 440.429H373.682C374.243 440.475 374.733 440.066 374.78 439.506C375.096 435.954 378.111 431.422 378.146 431.375C378.461 430.908 378.333 430.277 377.865 429.974C377.398 429.658 376.767 429.787 376.463 430.254C376.323 430.452 373.121 435.265 372.77 439.342C372.723 439.891 373.121 440.382 373.67 440.44L373.658 440.429Z" fill="white" stroke="#263238" stroke-linecap="round" stroke-linejoin="round"/>
<path d="M369.078 439.938C369.171 439.938 369.265 439.938 369.346 439.938C369.896 439.844 370.269 439.319 370.176 438.77C369.451 434.471 373.448 430.78 373.495 430.745C373.904 430.371 373.939 429.728 373.565 429.319C373.191 428.911 372.548 428.875 372.139 429.249C371.941 429.425 367.278 433.7 368.178 439.108C368.26 439.564 368.633 439.903 369.066 439.95L369.078 439.938Z" fill="white" stroke="#263238" stroke-linecap="round" stroke-linejoin="round"/>
<path d="M364.099 438.746C364.205 438.746 364.322 438.746 364.438 438.723C364.988 438.595 365.326 438.057 365.198 437.508C364.322 433.677 368.096 429.343 368.131 429.296C368.505 428.876 368.458 428.233 368.038 427.871C367.617 427.497 366.986 427.544 366.612 427.953C366.425 428.163 362.101 433.104 363.211 437.964C363.317 438.396 363.679 438.7 364.088 438.746H364.099Z" fill="white" stroke="#263238" stroke-linecap="round" stroke-linejoin="round"/>
<path d="M258.812 431.235L257.34 435.511C257.34 435.511 259.21 443.372 270.837 445.849C282.464 448.325 289.136 451.666 294.746 452.601C300.355 453.535 303.697 453.407 303.697 453.407L305.029 451.806L258.801 431.247L258.812 431.235Z" fill="white" stroke="#263238" stroke-linecap="round" stroke-linejoin="round"/>
<path d="M327.08 437.975L305.041 451.795C305.041 451.795 289.394 448.874 276.317 444.354C266.91 441.094 258.824 437.006 258.824 432.567C258.824 425.827 266.151 424.752 274.6 425.908C276.177 426.107 277.79 426.399 279.414 426.75C292.829 429.635 310.86 423.969 310.86 423.969L327.103 437.987L327.08 437.975Z" fill="#263238"/>
<path opacity="0.3" d="M327.08 437.975L314.109 446.106C301.091 442.193 292.619 433.899 287.781 427.567C299.28 427.602 310.837 423.958 310.837 423.958L327.08 437.975Z" fill="black"/>
<path d="M327.08 437.975L305.041 451.795C305.041 451.795 289.394 448.874 276.317 444.354C266.91 441.094 258.824 437.006 258.824 432.567C258.824 425.827 266.151 424.752 274.6 425.908C276.177 426.107 277.79 426.399 279.414 426.75C292.829 429.635 310.86 423.969 310.86 423.969L327.103 437.987L327.08 437.975Z" stroke="#263238" stroke-linecap="round" stroke-linejoin="round"/>
<path d="M276.306 444.354C266.899 441.106 258.812 437.018 258.812 432.579C258.812 425.838 266.139 424.764 274.588 425.92C274.927 426.317 282.3 435.125 276.306 444.365V444.354Z" fill="white" stroke="#263238" stroke-linecap="round" stroke-linejoin="round"/>
<path d="M284.065 436.796C284.065 436.796 284.03 436.796 284.006 436.796C283.446 436.761 283.025 436.282 283.048 435.733C283.294 431.516 280.419 427.742 280.384 427.707C280.045 427.264 280.127 426.633 280.559 426.282C281.003 425.943 281.634 426.025 281.973 426.457C282.113 426.633 285.339 430.838 285.058 435.838C285.023 436.375 284.579 436.796 284.053 436.796H284.065Z" fill="white" stroke="#263238" stroke-linecap="round" stroke-linejoin="round"/>
<path d="M288.073 437.462C288.073 437.462 288.015 437.462 287.991 437.462C287.43 437.415 287.021 436.924 287.068 436.363C287.43 432.111 284.848 428.116 284.824 428.07C284.521 427.602 284.649 426.972 285.117 426.668C285.584 426.364 286.215 426.493 286.519 426.96C286.636 427.147 289.51 431.562 289.09 436.527C289.043 437.053 288.599 437.45 288.085 437.45L288.073 437.462Z" fill="white" stroke="#263238" stroke-linecap="round" stroke-linejoin="round"/>
<path d="M292.946 437.462H292.923C292.362 437.462 291.918 436.994 291.929 436.434C291.988 432.871 289.464 428.046 289.44 427.999C289.183 427.509 289.37 426.89 289.861 426.633C290.352 426.364 290.971 426.563 291.228 427.053C291.345 427.275 294.021 432.392 293.951 436.48C293.951 437.029 293.483 437.473 292.934 437.473L292.946 437.462Z" fill="white" stroke="#263238" stroke-linecap="round" stroke-linejoin="round"/>
<path d="M297.55 437.461C297.457 437.461 297.375 437.45 297.281 437.426C296.744 437.275 296.428 436.714 296.58 436.177C297.749 431.971 294.161 427.894 294.126 427.848C293.752 427.427 293.787 426.796 294.208 426.422C294.629 426.049 295.26 426.084 295.634 426.504C295.809 426.703 300.004 431.445 298.532 436.726C298.403 437.169 297.994 437.461 297.562 437.461H297.55Z" fill="white" stroke="#263238" stroke-linecap="round" stroke-linejoin="round"/>
<path d="M302.633 436.796C302.528 436.796 302.411 436.772 302.306 436.737C301.78 436.55 301.5 435.978 301.675 435.452C302.949 431.738 299.653 427.03 299.618 426.983C299.291 426.528 299.396 425.897 299.852 425.57C300.308 425.243 300.939 425.348 301.266 425.803C301.43 426.025 305.216 431.399 303.591 436.118C303.451 436.539 303.054 436.807 302.633 436.807V436.796Z" fill="white" stroke="#263238" stroke-linecap="round" stroke-linejoin="round"/>
<path d="M307.436 442.274C311.047 443.255 306.221 450.334 301.488 447.531C296.755 444.727 303.837 441.281 307.436 442.274Z" fill="white" stroke="#263238" stroke-linecap="round" stroke-linejoin="round"/>
<path d="M265.765 404.73C271.187 412.311 287.22 420.687 303.206 427.602C304.924 430.441 308.418 435.756 313.232 440.697C323.071 450.813 327.08 445.148 327.08 445.148C327.08 445.148 333.296 444.447 342.469 443.197C343.077 444.377 344.479 446.223 347.109 445.802C348.301 445.615 350.603 443.91 353.197 441.655C376.369 438.174 407.815 432.357 416.311 425.511" fill="#15ACC0"/>
<path d="M265.765 404.73C271.187 412.311 287.22 420.687 303.206 427.602C304.924 430.441 308.418 435.756 313.232 440.697C323.071 450.813 327.08 445.148 327.08 445.148C327.08 445.148 333.296 444.447 342.469 443.197C343.077 444.377 344.479 446.223 347.109 445.802C348.301 445.615 350.603 443.91 353.197 441.655C376.369 438.174 407.815 432.357 416.311 425.511" stroke="#263238" stroke-linecap="round" stroke-linejoin="round"/>
<path d="M407.219 390.315C403.211 385.911 399.203 385.712 390.789 386.308C390.789 386.308 368.832 393.27 353.524 402.534C338.216 411.797 315.85 421.528 315.85 421.528C315.85 421.528 309.037 419.554 304.293 421.528C304.293 421.528 300.962 421.785 303.194 427.602" stroke="#263238" stroke-linecap="round" stroke-linejoin="round"/>
<path d="M417.444 416.622C417.444 416.622 417.561 423.409 407.932 428.105" stroke="#263238" stroke-linecap="round" stroke-linejoin="round"/>
<path d="M311.246 388.306C311.246 388.306 326.449 399.286 329.475 406.529C329.475 406.529 335.318 409.017 338.111 410.98" stroke="#263238" stroke-linecap="round" stroke-linejoin="round"/>
<path d="M330.585 397.441C331.602 400.595 331.987 404.029 331.123 407.265" stroke="#263238" stroke-linecap="round" stroke-linejoin="round"/>
<path d="M327.08 390.315C327.909 391.518 328.634 392.791 329.253 394.111" stroke="#263238" stroke-linecap="round" stroke-linejoin="round"/>
<path d="M348.71 389.31C348.71 389.31 353.793 396.097 355.055 401.623" stroke="#263238" stroke-linecap="round" stroke-linejoin="round"/>
<path d="M377.024 430.371C378.917 430.254 380.798 430.044 382.656 429.682" stroke="#263238" stroke-linecap="round" stroke-linejoin="round"/>
<path d="M329.347 425.511C343.217 428.163 358.42 430.184 373.051 430.523" stroke="#263238" stroke-linecap="round" stroke-linejoin="round"/>
<path d="M432.168 322.492C432.168 322.492 429.422 370.328 426.185 373.131C422.948 375.935 417.841 376.741 408.178 377.535C398.514 378.341 355.768 380.958 355.768 380.958L351.199 367.232C351.199 367.232 373.927 364.931 384.012 361.216C394.096 357.501 407.231 355.072 407.231 355.072C407.231 355.072 405.326 343.028 405.326 337.841V313.45" fill="white"/>
<path d="M432.168 322.492C432.168 322.492 429.422 370.328 426.185 373.131C422.948 375.935 417.841 376.741 408.178 377.535C398.514 378.341 355.768 380.958 355.768 380.958L351.199 367.232C351.199 367.232 373.927 364.931 384.012 361.216C394.096 357.501 407.231 355.072 407.231 355.072C407.231 355.072 405.326 343.028 405.326 337.841V313.45" stroke="#263238" stroke-linecap="round" stroke-linejoin="round"/>
<path d="M423.743 270.182C434.166 276.595 437.24 291.419 433.629 323.064C433.629 323.064 436.702 326.802 432.156 328.671C432.156 328.671 415.142 322.305 407.219 326.697C399.296 331.078 401.353 320.635 401.353 320.635C401.353 320.635 398.093 291.524 405.303 286.267" fill="#263238"/>
<path d="M404.38 281.793C404.38 281.793 394.365 292.213 403.176 318.52C403.176 318.52 401.949 323.31 401.961 325.062C401.961 326.814 404.38 327.737 404.38 327.737" stroke="white" stroke-linecap="round" stroke-linejoin="round"/>
<path d="M392.671 299.421C392.671 299.421 393.395 312.236 401.365 317.854" stroke="white" stroke-linecap="round" stroke-linejoin="round"/>
<path d="M395.242 269.586C395.242 269.586 379.711 275.532 367.36 268.944C360.033 265.042 363.048 258.769 363.048 258.769" stroke="white" stroke-linecap="round" stroke-linejoin="round"/>
<path d="M283.562 390.327H368.096C370.001 390.327 371.905 390.081 373.752 389.602L390.427 385.233C390.906 385.105 391.233 384.684 391.233 384.194C391.233 383.598 390.754 383.119 390.158 383.119H280.08C279.484 383.119 279.005 383.598 279.005 384.194V385.771C279.005 388.294 281.05 390.338 283.574 390.338L283.562 390.327Z" fill="#757575" stroke="#263238" stroke-linecap="round" stroke-linejoin="round"/>
<path d="M275.184 386.133H359.951C361.435 386.133 362.312 384.918 361.926 383.411L346.197 322.282C345.812 320.775 344.304 319.56 342.82 319.56H258.053C256.569 319.56 255.692 320.775 256.078 322.282L271.807 383.411C272.192 384.918 273.7 386.133 275.184 386.133Z" fill="#999999" stroke="#263238" stroke-linecap="round" stroke-linejoin="round"/>
<path d="M261.044 321.744H259.443" stroke="#263238" stroke-linecap="round" stroke-linejoin="round"/>
<path d="M273.466 321.744H265.181" stroke="#263238" stroke-linecap="round" stroke-linejoin="round"/>
<path d="M357.906 378.4L344.024 324.454C343.638 322.947 342.119 321.733 340.647 321.733H275.336" stroke="#263238" stroke-linecap="round" stroke-linejoin="round"/>
<path d="M359.121 383.107L358.771 381.764" stroke="#263238" stroke-linecap="round" stroke-linejoin="round"/>
<path d="M300.693 354.394C300.752 354.873 300.845 355.364 300.986 355.854C302.072 359.534 305.52 361.765 308.686 360.842C311.853 359.908 313.548 356.17 312.473 352.49C311.374 348.799 307.927 346.579 304.76 347.502C304.386 347.619 304.024 347.771 303.685 347.958C303.954 350.679 302.785 353.226 300.693 354.394Z" fill="white" stroke="#263238" stroke-linecap="round" stroke-linejoin="round"/>
<path d="M338.111 239.833C330.772 239.027 326.764 232.065 322.359 230.979C317.953 229.892 315.137 228.654 315.137 228.654C315.137 228.654 313.618 223.339 311.339 225.196C309.072 227.054 306.069 266.654 309.002 265.416C311.935 264.178 311.935 268.85 311.935 268.85L339.174 292.856L362.008 252.438C362.008 252.438 345.438 240.651 338.099 239.845L338.111 239.833Z" fill="#263238"/>
<path d="M116.143 98.5687V97.9846H116.727" stroke="#263238" stroke-linecap="round" stroke-linejoin="round"/>
<path d="M120.163 97.9846H219.023" stroke="#263238" stroke-linecap="round" stroke-linejoin="round"/>
<path d="M220.729 97.9846H221.313V98.5687" stroke="#263238" stroke-linecap="round" stroke-linejoin="round"/>
<path d="M221.313 102.073V165.737" stroke="#263238" stroke-linecap="round" stroke-linejoin="round"/>
<path d="M221.313 167.49V168.074H220.729" stroke="#263238" stroke-linecap="round" stroke-linejoin="round"/>
<path d="M217.305 168.074H118.445" stroke="#263238" stroke-linecap="round" stroke-linejoin="round"/>
<path d="M116.727 168.074H116.143V167.49" stroke="#263238" stroke-linecap="round" stroke-linejoin="round"/>
<path d="M116.143 163.985V100.321" stroke="#263238" stroke-linecap="round" stroke-linejoin="round"/>
<path d="M168.728 99.7136C169.683 99.7136 170.458 98.9395 170.458 97.9847C170.458 97.0299 169.683 96.2559 168.728 96.2559C167.773 96.2559 166.999 97.0299 166.999 97.9847C166.999 98.9395 167.773 99.7136 168.728 99.7136Z" fill="#15ACC0" stroke="#263238" stroke-linecap="round" stroke-linejoin="round"/>
<path d="M116.143 134.758C117.098 134.758 117.873 133.984 117.873 133.029C117.873 132.074 117.098 131.3 116.143 131.3C115.188 131.3 114.414 132.074 114.414 133.029C114.414 133.984 115.188 134.758 116.143 134.758Z" fill="#15ACC0" stroke="#263238" stroke-linecap="round" stroke-linejoin="round"/>
<path d="M168.728 169.803C169.683 169.803 170.458 169.029 170.458 168.074C170.458 167.119 169.683 166.345 168.728 166.345C167.773 166.345 166.999 167.119 166.999 168.074C166.999 169.029 167.773 169.803 168.728 169.803Z" fill="#15ACC0" stroke="#263238" stroke-linecap="round" stroke-linejoin="round"/>
<path d="M221.313 134.758C222.268 134.758 223.043 133.984 223.043 133.029C223.043 132.074 222.268 131.3 221.313 131.3C220.358 131.3 219.584 132.074 219.584 133.029C219.584 133.984 220.358 134.758 221.313 134.758Z" fill="#15ACC0" stroke="#263238" stroke-linecap="round" stroke-linejoin="round"/>
<path d="M223.335 166.065H219.303V170.095H223.335V166.065Z" fill="#15ACC0" stroke="#263238" stroke-linecap="round" stroke-linejoin="round"/>
<path d="M223.335 95.9755H219.303V100.006H223.335V95.9755Z" fill="#15ACC0" stroke="#263238" stroke-linecap="round" stroke-linejoin="round"/>
<path d="M118.165 166.065H114.133V170.095H118.165V166.065Z" fill="#15ACC0" stroke="#263238" stroke-linecap="round" stroke-linejoin="round"/>
<path d="M118.165 95.9755H114.133V100.006H118.165V95.9755Z" fill="#15ACC0" stroke="#263238" stroke-linecap="round" stroke-linejoin="round"/>
<path d="M214.664 104.188H123.131V162.327H214.664V104.188Z" fill="white" stroke="#263238" stroke-linecap="round" stroke-linejoin="round"/>
<path d="M214.653 145.143L204.486 155.318L176.955 127.808L165.374 139.384L146.899 120.916L123.131 144.687V162.327H214.653V145.143Z" fill="#BBFFE6" stroke="#263238" stroke-linecap="round" stroke-linejoin="round"/>
<path d="M195.699 127.142C199.267 127.142 202.161 124.25 202.161 120.682C202.161 117.114 199.267 114.222 195.699 114.222C192.13 114.222 189.236 117.114 189.236 120.682C189.236 124.25 192.13 127.142 195.699 127.142Z" fill="#BBFFE6" stroke="#263238" stroke-linecap="round" stroke-linejoin="round"/>
<path d="M342.949 250.545C342.949 250.545 335.996 263.594 335.119 283.557" stroke="white" stroke-linecap="round" stroke-linejoin="round"/>
<path d="M322.37 259.587C322.37 259.587 324.462 270.684 330.585 278.721" stroke="white" stroke-linecap="round" stroke-linejoin="round"/>
<path d="M351.187 305.367C351.187 305.367 361.681 339.897 384.561 350.072" stroke="white" stroke-linecap="round" stroke-linejoin="round"/>
<path d="M378.835 242.871C378.835 242.871 377.842 250.405 370.597 250.931C369.825 249.179 368.61 247.263 367.383 245.546C372.186 244.004 378.835 242.871 378.835 242.871Z" fill="#263238"/>
<path d="M394.272 243.396C394.272 243.396 406.39 244.88 411.461 228.619C416.533 212.359 412.548 200.105 392.484 194.205C381.359 190.935 370.246 193.563 366.238 201.974C362.802 209.181 364.427 215.185 363.632 217.604C362.744 220.314 354.552 222.615 354.552 224.472C354.552 226.014 359.098 228.619 359.098 228.619L357.766 232.661L359.028 233.327C359.028 233.327 356.703 242.427 357.766 245.639C358.549 247.987 379.069 248.957 380.67 243.151" fill="white"/>
<path d="M394.272 243.396C394.272 243.396 406.39 244.88 411.461 228.619C416.533 212.359 412.548 200.105 392.484 194.205C381.359 190.935 370.246 193.563 366.238 201.974C362.802 209.181 364.427 215.185 363.632 217.604C362.744 220.314 354.552 222.615 354.552 224.472C354.552 226.014 359.098 228.619 359.098 228.619L357.766 232.661L359.028 233.327C359.028 233.327 356.703 242.427 357.766 245.639C358.549 247.987 379.069 248.957 380.67 243.151" stroke="#263238" stroke-linecap="round" stroke-linejoin="round"/>
<path d="M366.343 207.884C366.343 207.884 370.351 208.889 371.45 210.992" stroke="#263238" stroke-linecap="round" stroke-linejoin="round"/>
<path d="M367.056 217.113C366.881 218.293 367.149 219.309 367.664 219.379C368.166 219.449 368.715 218.561 368.891 217.382C369.066 216.202 368.797 215.185 368.283 215.115C367.769 215.045 367.231 215.933 367.056 217.113Z" fill="#263238"/>
<path d="M359.016 233.327C359.016 233.327 365.537 235.827 367.967 234.32" stroke="#263238" stroke-linecap="round" stroke-linejoin="round"/>
<path d="M361.307 216.19C360.828 218.795 361.412 221.096 362.615 221.318C363.819 221.54 365.186 219.613 365.677 216.996C366.168 214.379 365.572 212.09 364.368 211.868C363.165 211.646 361.797 213.573 361.307 216.19Z" stroke="#263238" stroke-linecap="round" stroke-linejoin="round"/>
<path d="M411.999 202.873C411.999 202.873 411.064 196.063 404.38 191.121C397.696 186.18 389.691 185.117 389.691 185.117C389.691 185.117 393.571 186.811 395.031 189.03C395.031 189.03 385.017 181.508 373.121 186.449C361.237 191.39 362.697 204.228 362.697 204.228L364.438 200.864C364.438 200.864 364.24 204.871 366.343 206.342C366.343 206.342 367.617 202.464 368.902 200.735C368.902 200.735 372.057 210.221 380.74 213.421C380.74 213.421 379.805 211.552 380.611 208.749C380.611 208.749 385.414 219.169 384.012 224.239L385.554 226.914C385.554 226.914 391.082 221.318 395.569 225.979C398.151 228.654 390.626 238.794 389.562 238.794L394.108 245.476C394.108 245.476 405.466 247.088 412.01 234.799C418.554 222.51 416.953 217.253 416.953 217.253C416.953 217.253 419.092 220.244 419.361 221.972C419.361 221.972 421.23 208.749 412.01 202.873H411.999Z" fill="#263238"/>
<path d="M385.274 228.117C385.274 228.117 388.756 216.33 396.235 220.489C403.714 224.647 398.362 230.92 395.697 233.327C393.021 235.733 391.023 240.137 389.282 240.137C387.541 240.137 387.143 237.999 387.143 237.999" fill="white"/>
<path d="M385.274 228.117C385.274 228.117 388.756 216.33 396.235 220.489C403.714 224.647 398.362 230.92 395.697 233.327C393.021 235.733 391.023 240.137 389.282 240.137C387.541 240.137 387.143 237.999 387.143 237.999" stroke="#263238" stroke-linecap="round" stroke-linejoin="round"/>
<path d="M365.677 216.996L386.477 221.318" stroke="#263238" stroke-linecap="round" stroke-linejoin="round"/>
</g>
<defs>
<clipPath id="clip0_83_3402">
<rect width="490" height="456" fill="white"/>
</clipPath>
</defs>
</svg>
