<svg width="24" height="25" viewBox="0 0 24 25" fill="none" xmlns="http://www.w3.org/2000/svg">
<g clip-path="url(#clip0_196_887)">
<path d="M12 15.5721C13.6569 15.5721 15 14.229 15 12.5721C15 10.9153 13.6569 9.57214 12 9.57214C10.3431 9.57214 9 10.9153 9 12.5721C9 14.229 10.3431 15.5721 12 15.5721Z" stroke="#143B40" stroke-width="2.2703" stroke-linecap="round" stroke-linejoin="round"/>
<path d="M19.4004 15.5721C19.2673 15.8738 19.2275 16.2083 19.2864 16.5327C19.3452 16.8571 19.4998 17.1565 19.7304 17.3921L19.7904 17.4521C19.9763 17.6379 20.1238 17.8585 20.2245 18.1013C20.3251 18.3441 20.3769 18.6043 20.3769 18.8671C20.3769 19.13 20.3251 19.3902 20.2245 19.633C20.1238 19.8758 19.9763 20.0964 19.7904 20.2821C19.6046 20.4681 19.384 20.6156 19.1412 20.7163C18.8985 20.8169 18.6382 20.8687 18.3754 20.8687C18.1125 20.8687 17.8523 20.8169 17.6095 20.7163C17.3667 20.6156 17.1461 20.4681 16.9604 20.2821L16.9004 20.2221C16.6647 19.9916 16.3653 19.837 16.041 19.7781C15.7166 19.7193 15.382 19.759 15.0804 19.8921C14.7846 20.0189 14.5323 20.2294 14.3547 20.4977C14.177 20.766 14.0816 21.0804 14.0804 21.4021V21.5721C14.0804 22.1026 13.8697 22.6113 13.4946 22.9864C13.1195 23.3614 12.6108 23.5721 12.0804 23.5721C11.5499 23.5721 11.0412 23.3614 10.6662 22.9864C10.2911 22.6113 10.0804 22.1026 10.0804 21.5721V21.4821C10.0726 21.1511 9.96548 20.8301 9.77288 20.5608C9.58027 20.2916 9.3111 20.0864 9.00037 19.9721C8.69875 19.839 8.36417 19.7993 8.03978 19.8581C7.71538 19.917 7.41605 20.0716 7.18037 20.3021L7.12037 20.3621C6.93462 20.5481 6.71404 20.6956 6.47125 20.7963C6.22845 20.8969 5.9682 20.9487 5.70537 20.9487C5.44254 20.9487 5.18228 20.8969 4.93949 20.7963C4.69669 20.6956 4.47611 20.5481 4.29037 20.3621C4.10441 20.1764 3.9569 19.9558 3.85625 19.713C3.7556 19.4702 3.70379 19.21 3.70379 18.9471C3.70379 18.6843 3.7556 18.4241 3.85625 18.1813C3.9569 17.9385 4.10441 17.7179 4.29037 17.5321L4.35037 17.4721C4.5809 17.2365 4.73555 16.9371 4.79437 16.6127C4.85319 16.2883 4.81348 15.9538 4.68037 15.6521C4.5536 15.3564 4.34312 15.1041 4.07483 14.9265C3.80654 14.7488 3.49215 14.6534 3.17037 14.6521H3.00037C2.46993 14.6521 1.96123 14.4414 1.58615 14.0664C1.21108 13.6913 1.00037 13.1826 1.00037 12.6521C1.00037 12.1217 1.21108 11.613 1.58615 11.2379C1.96123 10.8629 2.46993 10.6521 3.00037 10.6521H3.09037C3.42136 10.6444 3.74237 10.5373 4.01167 10.3447C4.28096 10.152 4.48608 9.88288 4.60037 9.57214C4.73348 9.27053 4.77319 8.93595 4.71437 8.61156C4.65555 8.28716 4.5009 7.98782 4.27037 7.75214L4.21037 7.69214C4.02441 7.5064 3.8769 7.28582 3.77625 7.04302C3.6756 6.80023 3.62379 6.53997 3.62379 6.27714C3.62379 6.01431 3.6756 5.75406 3.77625 5.51126C3.8769 5.26847 4.02441 5.04789 4.21037 4.86214C4.39611 4.67619 4.61669 4.52867 4.85949 4.42802C5.10228 4.32738 5.36254 4.27557 5.62537 4.27557C5.8882 4.27557 6.14845 4.32738 6.39125 4.42802C6.63404 4.52867 6.85462 4.67619 7.04037 4.86214L7.10037 4.92214C7.33605 5.15268 7.63538 5.30733 7.95978 5.36615C8.28417 5.42497 8.61875 5.38526 8.92037 5.25214H9.00037C9.29614 5.12538 9.54838 4.9149 9.72606 4.64661C9.90373 4.37832 9.99908 4.06393 10.0004 3.74214V3.57214C10.0004 3.04171 10.2111 2.533 10.5862 2.15793C10.9612 1.78286 11.4699 1.57214 12.0004 1.57214C12.5308 1.57214 13.0395 1.78286 13.4146 2.15793C13.7897 2.533 14.0004 3.04171 14.0004 3.57214V3.66214C14.0016 3.98393 14.097 4.29832 14.2747 4.56661C14.4523 4.8349 14.7046 5.04538 15.0004 5.17214C15.302 5.30526 15.6366 5.34497 15.961 5.28615C16.2853 5.22733 16.5847 5.07268 16.8204 4.84214L16.8804 4.78214C17.0661 4.59619 17.2867 4.44867 17.5295 4.34802C17.7723 4.24738 18.0325 4.19557 18.2954 4.19557C18.5582 4.19557 18.8185 4.24738 19.0612 4.34802C19.304 4.44867 19.5246 4.59619 19.7104 4.78214C19.8963 4.96789 20.0438 5.18847 20.1445 5.43126C20.2451 5.67406 20.2969 5.93431 20.2969 6.19714C20.2969 6.45997 20.2451 6.72023 20.1445 6.96302C20.0438 7.20582 19.8963 7.4264 19.7104 7.61214L19.6504 7.67214C19.4198 7.90782 19.2652 8.20716 19.2064 8.53155C19.1475 8.85595 19.1873 9.19053 19.3204 9.49214V9.57214C19.4471 9.86791 19.6576 10.1202 19.9259 10.2978C20.1942 10.4755 20.5086 10.5709 20.8304 10.5721H21.0004C21.5308 10.5721 22.0395 10.7829 22.4146 11.1579C22.7897 11.533 23.0004 12.0417 23.0004 12.5721C23.0004 13.1026 22.7897 13.6113 22.4146 13.9864C22.0395 14.3614 21.5308 14.5721 21.0004 14.5721H20.9104C20.5886 14.5734 20.2742 14.6688 20.0059 14.8465C19.7376 15.0241 19.5271 15.2764 19.4004 15.5721V15.5721Z" stroke="#143B40" stroke-width="2.2703" stroke-linecap="round" stroke-linejoin="round"/>
</g>
<defs>
<clipPath id="clip0_196_887">
<rect width="24" height="24" fill="white" transform="translate(0 0.572144)"/>
</clipPath>
</defs>
</svg>
