<svg width="22" height="23" viewBox="0 0 22 23" fill="none" xmlns="http://www.w3.org/2000/svg">
<path d="M20.0004 15.5722V7.57217C20 7.22144 19.9074 6.87698 19.7319 6.57333C19.5564 6.26968 19.3041 6.01753 19.0004 5.84217L12.0004 1.84217C11.6963 1.66663 11.3514 1.57422 11.0004 1.57422C10.6493 1.57422 10.3044 1.66663 10.0004 1.84217L3.00037 5.84217C2.69663 6.01753 2.44435 6.26968 2.26883 6.57333C2.09331 6.87698 2.00073 7.22144 2.00037 7.57217V15.5722C2.00073 15.9229 2.09331 16.2674 2.26883 16.571C2.44435 16.8747 2.69663 17.1268 3.00037 17.3022L10.0004 21.3022C10.3044 21.4777 10.6493 21.5701 11.0004 21.5701C11.3514 21.5701 11.6963 21.4777 12.0004 21.3022L19.0004 17.3022C19.3041 17.1268 19.5564 16.8747 19.7319 16.571C19.9074 16.2674 20 15.9229 20.0004 15.5722Z" stroke="#143B40" stroke-width="2.2703" stroke-linecap="round" stroke-linejoin="round"/>
<path d="M2.27026 6.5321L11.0003 11.5821L19.7303 6.5321M11.0003 21.6521V11.5721" stroke="#143B40" stroke-width="2.2703" stroke-linecap="round" stroke-linejoin="round"/>
</svg>
