<svg width="56" height="25" viewBox="0 0 56 25" fill="none" xmlns="http://www.w3.org/2000/svg">
<path d="M15.3138 11.6338L11.538 20.9297V20.9572L15.3138 11.6338Z" fill="#F9558C"/>
<path d="M29.2406 25H32.7701L23.2759 0H23.0023L21.3606 4.07041L29.2406 25Z" fill="#15ACC0"/>
<path d="M12.8787 24.9999L17.5848 13.3662L12.8513 24.9999H12.8787Z" fill="#F9558C"/>
<path d="M3.65799 0H0.128418L9.62268 25H9.86893L11.5379 20.9296L3.65799 0Z" fill="#2D4249"/>
<path d="M19.9924 0L15.3137 11.6337L20.0198 0H19.9924Z" fill="#2D4249"/>
<path d="M21.3332 4.04297L17.5847 13.3664L21.3605 4.07047L21.3332 4.04297Z" fill="#2D4249"/>
<path d="M21.3605 4.07041L23.0022 0H20.0198L15.3137 11.6337L11.5379 20.9571V20.9296L9.8689 25H12.8512L17.5847 13.3663L21.3332 4.0429L21.3605 4.07041Z" fill="#2D4249"/>
<path d="M34.641 2.0032C34.4784 2.24849 34.3563 2.57555 34.397 2.98438H32.8922C32.8922 2.57555 32.9735 2.16673 33.0955 1.79878C33.2175 1.47172 33.4209 1.18555 33.7056 0.89937C33.9089 0.694958 34.153 0.57231 34.4784 0.449663C34.8037 0.327015 35.1291 0.286133 35.5358 0.286133C36.3086 0.286133 36.9593 0.490545 37.4474 0.89937C37.9355 1.30819 38.1795 1.83967 38.1795 2.53467C38.1795 3.02526 38.0168 3.43408 37.7321 3.76114C37.5694 3.96555 37.366 4.0882 37.1627 4.16997C37.3254 4.16997 37.5287 4.29261 37.8134 4.53791C38.2202 4.90585 38.4235 5.43732 38.4235 6.09144C38.4235 6.74556 38.1795 7.39968 37.6914 7.93115C37.2034 8.46263 36.5119 8.70792 35.5765 8.70792C34.4377 8.70792 33.6242 8.33998 33.1769 7.56321C32.9328 7.15439 32.8108 6.62292 32.7701 5.9688H34.3563C34.3563 6.29586 34.397 6.58203 34.519 6.78645C34.7224 7.19527 35.0884 7.39968 35.5765 7.39968C35.9019 7.39968 36.1866 7.27703 36.3899 7.07262C36.634 6.86821 36.756 6.54115 36.756 6.13233C36.756 5.60085 36.5526 5.23291 36.1052 5.06938C35.8612 4.94673 35.4545 4.90585 34.9257 4.90585V3.76114C35.4545 3.76114 35.8205 3.72026 36.0239 3.59761C36.3899 3.43408 36.5526 3.10702 36.5526 2.61643C36.5526 2.28937 36.4713 2.04408 36.2679 1.83967C36.1052 1.63525 35.8205 1.55349 35.4951 1.55349C35.1291 1.55349 34.8444 1.67614 34.641 1.92143V2.0032Z" fill="#2D4249"/>
<path d="M42.4093 3.22978C43.1414 3.22978 43.7515 3.47508 44.1989 3.96567C44.6463 4.45626 44.8903 5.11037 44.8903 5.88714C44.8903 6.66391 44.6463 7.31803 44.1989 7.93127C43.7515 8.50362 43.0194 8.7898 42.084 8.7898C41.0672 8.7898 40.2944 8.34009 39.8063 7.48156C39.4403 6.78656 39.2369 5.92802 39.2369 4.86508C39.2369 4.25184 39.2369 3.72037 39.3183 3.31155C39.3996 2.61654 39.603 2.04419 39.847 1.5536C40.091 1.14478 40.3757 0.817716 40.7825 0.613304C41.1485 0.368009 41.5959 0.245361 42.1246 0.245361C42.8974 0.245361 43.5075 0.449774 43.9549 0.817716C44.4023 1.22654 44.6463 1.71713 44.7276 2.37125H43.1414C43.1414 2.37125 43.1008 2.08507 42.9787 1.92154C42.8161 1.67625 42.5314 1.51272 42.206 1.51272C41.6772 1.51272 41.3112 1.7989 41.1078 2.41213C40.9858 2.73919 40.9045 3.22978 40.8638 3.84302C41.0672 3.59772 41.3112 3.43419 41.5552 3.31155C41.7993 3.1889 42.1246 3.14802 42.45 3.14802L42.4093 3.22978ZM41.3112 4.78331C40.9858 5.02861 40.8231 5.43743 40.8231 5.96891C40.8231 6.41861 40.9452 6.78656 41.1892 7.07273C41.4332 7.35891 41.7179 7.48156 42.084 7.48156C42.45 7.48156 42.7347 7.35891 42.9381 7.07273C43.1414 6.78656 43.2634 6.4595 43.2634 6.00979C43.2634 5.5192 43.1414 5.15126 42.8974 4.90596C42.6534 4.66067 42.3687 4.53802 42.0433 4.53802C41.7586 4.53802 41.5146 4.61978 41.3112 4.78331Z" fill="#2D4249"/>
<path d="M48.4694 8.78969C47.412 8.78969 46.6799 8.42174 46.2732 7.68586C45.8664 6.94997 45.6631 5.88703 45.6631 4.53791C45.6631 3.18879 45.8664 2.12584 46.2732 1.38996C46.6799 0.654075 47.412 0.286133 48.4694 0.286133C49.5269 0.286133 50.259 0.654075 50.6657 1.38996C51.0724 2.12584 51.2758 3.18879 51.2758 4.53791C51.2758 5.88703 51.0724 6.94997 50.6657 7.68586C50.259 8.42174 49.5269 8.78969 48.4694 8.78969ZM49.4049 6.70468C49.5676 6.21409 49.6082 5.47821 49.6082 4.53791C49.6082 3.59761 49.5269 2.82085 49.4049 2.33026C49.2422 1.83967 48.9575 1.59437 48.4694 1.59437C47.9814 1.59437 47.656 1.83967 47.534 2.33026C47.3713 2.82085 47.29 3.55673 47.29 4.53791C47.29 5.51909 47.3713 6.21409 47.534 6.70468C47.6967 7.19527 48.022 7.44056 48.4694 7.44056C48.9168 7.44056 49.2422 7.19527 49.4049 6.70468Z" fill="#2D4249"/>
<path d="M53.8382 3.92472C53.1874 3.92472 52.6993 3.76119 52.3333 3.39324C51.9673 3.0253 51.8046 2.53471 51.8046 1.96236C51.8046 1.39 51.9673 0.899414 52.3333 0.531472C52.6993 0.16353 53.1874 0 53.8382 0C54.4889 0 54.977 0.16353 55.343 0.531472C55.7091 0.899414 55.8717 1.39 55.8717 1.96236C55.8717 2.53471 55.7091 3.0253 55.343 3.39324C54.977 3.76119 54.4889 3.92472 53.8382 3.92472ZM54.5296 2.78001C54.6923 2.5756 54.7736 2.28942 54.7736 1.92148C54.7736 1.55353 54.6923 1.26736 54.5296 1.06294C54.3669 0.858532 54.1229 0.735884 53.8382 0.735884C53.5535 0.735884 53.2688 0.858532 53.1061 1.06294C52.9434 1.26736 52.862 1.55353 52.862 1.92148C52.862 2.28942 52.9434 2.53471 53.1061 2.78001C53.2688 2.98442 53.5128 3.10707 53.8382 3.10707C54.1635 3.10707 54.4076 2.98442 54.5296 2.78001Z" fill="#2D4249"/>
</svg>
