<svg width="86" height="38" viewBox="0 0 86 38" fill="none" xmlns="http://www.w3.org/2000/svg">
<path d="M24.0142 17.6597L18.2893 31.7544V31.7961L24.0142 17.6597Z" fill="#F9558C"/>
<path d="M45.1304 37.9261H50.482L36.0865 0.0205078H35.6717L33.1826 6.19216L45.1304 37.9261Z" fill="#15ACC0"/>
<path d="M20.3221 37.9261L27.4576 20.2869L20.2806 37.9261H20.3221Z" fill="#F9558C"/>
<path d="M6.34145 0.0205078H0.989838L15.3853 37.9261H15.7586L18.2892 31.7545L6.34145 0.0205078Z" fill="#283252"/>
<path d="M31.1082 0.0205078L24.0142 17.6598L31.1497 0.0205078H31.1082Z" fill="#283252"/>
<path d="M33.141 6.15039L27.4575 20.2868L33.1825 6.19209L33.141 6.15039Z" fill="#283252"/>
<path d="M33.1826 6.19216L35.6717 0.0205078H31.1498L24.0143 17.6598L18.2893 31.7962V31.7545L15.7587 37.9261H20.2806L27.4576 20.2869L33.1411 6.15046L33.1826 6.19216Z" fill="#283252"/>
<path d="M53.3187 3.0578C53.072 3.42972 52.887 3.92562 52.9487 4.54549H50.667C50.667 3.92562 50.7903 3.30575 50.9753 2.74786C51.1603 2.25197 51.4687 1.81806 51.9003 1.38415C52.2087 1.07422 52.5787 0.888255 53.072 0.702294C53.5654 0.516333 54.0587 0.454346 54.6754 0.454346C55.8471 0.454346 56.8337 0.764281 57.5738 1.38415C58.3138 2.00402 58.6838 2.80985 58.6838 3.86363C58.6838 4.60747 58.4371 5.22734 58.0054 5.72324C57.7588 6.03318 57.4504 6.21914 57.1421 6.34311C57.3888 6.34311 57.6971 6.52907 58.1288 6.90099C58.7454 7.45888 59.0538 8.26471 59.0538 9.2565C59.0538 10.2483 58.6838 11.2401 57.9438 12.0459C57.2037 12.8517 56.1554 13.2237 54.737 13.2237C53.0104 13.2237 51.777 12.6658 51.0987 11.488C50.7287 10.8682 50.5437 10.0623 50.482 9.07054H52.887C52.887 9.56643 52.9487 10.0003 53.1337 10.3103C53.442 10.9301 53.997 11.2401 54.737 11.2401C55.2304 11.2401 55.6621 11.0541 55.9704 10.7442C56.3404 10.4343 56.5254 9.93836 56.5254 9.31849C56.5254 8.51265 56.2171 7.95477 55.5387 7.70682C55.1687 7.52086 54.552 7.45888 53.7504 7.45888V5.72324C54.552 5.72324 55.1071 5.66125 55.4154 5.47529C55.9704 5.22734 56.2171 4.73145 56.2171 3.9876C56.2171 3.49171 56.0937 3.11979 55.7854 2.80985C55.5387 2.49992 55.1071 2.37594 54.6137 2.37594C54.0587 2.37594 53.627 2.5619 53.3187 2.93383V3.0578Z" fill="#283252"/>
<path d="M65.0972 4.91739C66.2072 4.91739 67.1322 5.28931 67.8105 6.03315C68.4889 6.777 68.8589 7.76879 68.8589 8.94654C68.8589 10.1243 68.4889 11.1161 67.8105 12.0459C67.1322 12.9137 66.0222 13.3476 64.6038 13.3476C63.0622 13.3476 61.8905 12.6658 61.1505 11.364C60.5954 10.3103 60.2871 9.00853 60.2871 7.39686C60.2871 6.46706 60.2871 5.66123 60.4104 5.04136C60.5338 3.98758 60.8421 3.11976 61.2121 2.37592C61.5821 1.75605 62.0138 1.26015 62.6305 0.950217C63.1855 0.578295 63.8638 0.392334 64.6655 0.392334C65.8372 0.392334 66.7622 0.702269 67.4405 1.26015C68.1189 1.88002 68.4889 2.62387 68.6122 3.61566H66.2072C66.2072 3.61566 66.1455 3.18175 65.9605 2.9338C65.7138 2.56188 65.2822 2.31393 64.7888 2.31393C63.9872 2.31393 63.4322 2.74784 63.1238 3.67765C62.9388 4.17354 62.8155 4.91739 62.7538 5.84719C63.0621 5.47527 63.4322 5.22732 63.8022 5.04136C64.1722 4.8554 64.6655 4.79341 65.1588 4.79341L65.0972 4.91739ZM63.4322 7.27289C62.9388 7.64481 62.6921 8.26468 62.6921 9.07051C62.6921 9.75237 62.8771 10.3103 63.2472 10.7442C63.6172 11.1781 64.0488 11.364 64.6038 11.364C65.1588 11.364 65.5905 11.1781 65.8989 10.7442C66.2072 10.3103 66.3922 9.81436 66.3922 9.1325C66.3922 8.38866 66.2072 7.83077 65.8372 7.45885C65.4672 7.08693 65.0355 6.90097 64.5422 6.90097C64.1105 6.90097 63.7405 7.02494 63.4322 7.27289Z" fill="#283252"/>
<path d="M74.2856 13.3476C72.6823 13.3476 71.5723 12.7898 70.9556 11.674C70.3389 10.5582 70.0306 8.94656 70.0306 6.90099C70.0306 4.85542 70.3389 3.24376 70.9556 2.12799C71.5723 1.01223 72.6823 0.454346 74.2856 0.454346C75.889 0.454346 76.999 1.01223 77.6157 2.12799C78.2324 3.24376 78.5407 4.85542 78.5407 6.90099C78.5407 8.94656 78.2324 10.5582 77.6157 11.674C76.999 12.7898 75.889 13.3476 74.2856 13.3476ZM75.704 10.1863C75.9507 9.44246 76.0123 8.32669 76.0123 6.90099C76.0123 5.47529 75.889 4.29754 75.704 3.5537C75.4573 2.80985 75.0256 2.43793 74.2856 2.43793C73.5456 2.43793 73.0523 2.80985 72.8673 3.5537C72.6206 4.29754 72.4973 5.4133 72.4973 6.90099C72.4973 8.38868 72.6206 9.44246 72.8673 10.1863C73.114 10.9301 73.6073 11.3021 74.2856 11.3021C74.964 11.3021 75.4573 10.9301 75.704 10.1863Z" fill="#283252"/>
<path d="M82.4258 5.97126C81.4391 5.97126 80.6991 5.72331 80.1441 5.16543C79.589 4.60754 79.3424 3.8637 79.3424 2.99588C79.3424 2.12807 79.589 1.38422 80.1441 0.826339C80.6991 0.268456 81.4391 0.0205078 82.4258 0.0205078C83.4124 0.0205078 84.1524 0.268456 84.7074 0.826339C85.2625 1.38422 85.5091 2.12807 85.5091 2.99588C85.5091 3.8637 85.2625 4.60754 84.7074 5.16543C84.1524 5.72331 83.4124 5.97126 82.4258 5.97126ZM83.4741 4.23562C83.7208 3.92569 83.8441 3.49178 83.8441 2.9339C83.8441 2.37601 83.7208 1.9421 83.4741 1.63217C83.2274 1.32223 82.8574 1.13627 82.4258 1.13627C81.9941 1.13627 81.5624 1.32223 81.3157 1.63217C81.0691 1.9421 80.9457 2.37601 80.9457 2.9339C80.9457 3.49178 81.0691 3.8637 81.3157 4.23562C81.5624 4.54556 81.9324 4.73152 82.4258 4.73152C82.9191 4.73152 83.2891 4.54556 83.4741 4.23562Z" fill="#283252"/>
</svg>
