<?xml version="1.0" encoding="UTF-8"?>
<svg id="Capa_2" data-name="Capa 2" xmlns="http://www.w3.org/2000/svg" viewBox="0 0 223.38 147.54">
  <defs>
    <style>
      .cls-1 {
        fill: #009fb4;
      }

      .cls-2 {
        fill: #22363e;
      }
    </style>
  </defs>
  <g id="Capa_1-2" data-name="Capa 1">
    <path class="cls-2" d="m59.31,147.54h0L0,0h27.86l46.02,111.74h0l-14.57,35.81h0Z"/>
    <path class="cls-1" d="m118.81,0h27.86l59.31,147.54h-27.86l-45.38-110.18-45.38,110.18h-27.86L118.81,0Z"/>
    <g>
      <path class="cls-1" d="m178.53,10.57c.85-1.32,1.68-2.63,2.51-3.92.83-1.29,1.65-2.59,2.48-3.89h-6.79V.84h10.11c-.83,1.26-1.65,2.52-2.46,3.77-.82,1.25-1.65,2.5-2.5,3.74.74.17,1.44.43,2.09.81.65.37,1.21.83,1.69,1.38.47.55.85,1.17,1.12,1.86.27.69.4,1.44.4,2.25,0,.91-.18,1.76-.53,2.56-.35.8-.83,1.49-1.43,2.09-.6.6-1.3,1.07-2.11,1.43-.81.35-1.66.53-2.57.53-.97,0-1.88-.19-2.71-.57-.84-.38-1.56-.9-2.15-1.57.23-.23.46-.45.71-.68.25-.23.49-.45.71-.68.41.48.91.86,1.49,1.16.58.3,1.22.45,1.92.45.64,0,1.25-.12,1.83-.37.58-.25,1.08-.59,1.52-1.02.43-.43.77-.93,1.02-1.5.25-.57.37-1.17.37-1.81s-.12-1.24-.37-1.81c-.25-.57-.59-1.06-1.02-1.47-.43-.41-.94-.74-1.52-.99-.58-.25-1.19-.37-1.83-.37-.7,0-1.36.2-1.98.59Z"/>
      <path class="cls-1" d="m191.02,14.91c0-1.49.32-2.88.95-4.17.63-1.29,1.44-2.5,2.43-3.61.99-1.12,2.1-2.16,3.32-3.13,1.22-.97,2.41-1.88,3.57-2.73.21.25.41.5.6.76.2.26.4.51.6.76-1.76,1.18-3.19,2.29-4.29,3.33s-1.96,1.97-2.56,2.77c.25-.23.54-.41.88-.56.34-.14.71-.22,1.1-.22.91,0,1.77.17,2.57.51.81.34,1.51.81,2.11,1.4s1.07,1.28,1.43,2.08c.35.8.53,1.65.53,2.56s-.18,1.76-.53,2.56c-.35.8-.83,1.49-1.43,2.08s-1.3,1.06-2.11,1.41c-.81.35-1.66.53-2.57.53s-1.73-.17-2.53-.5c-.8-.33-1.49-.78-2.08-1.35-.59-.57-1.06-1.24-1.43-2.01-.36-.78-.55-1.6-.57-2.46Zm1.98-.25c0,.64.12,1.25.36,1.81.24.57.56,1.06.98,1.49.41.42.9.76,1.46,1.01s1.16.37,1.8.37,1.25-.12,1.83-.37c.58-.25,1.08-.58,1.52-1.01.43-.42.77-.92,1.02-1.49.25-.57.37-1.17.37-1.81s-.12-1.24-.37-1.81c-.25-.57-.59-1.06-1.02-1.47-.43-.41-.94-.74-1.52-.99-.58-.25-1.19-.37-1.83-.37s-1.24.12-1.8.37-1.04.58-1.46.99c-.41.41-.74.9-.98,1.47-.24.57-.36,1.17-.36,1.81Z"/>
      <path class="cls-1" d="m206.77,10.85c0-1.4.2-2.73.59-3.98.39-1.25.96-2.34,1.69-3.27.73-.93,1.61-1.66,2.63-2.2s2.17-.81,3.46-.81,2.43.28,3.46.84c1.02.56,1.89,1.31,2.6,2.26s1.26,2.05,1.63,3.3c.37,1.25.56,2.58.56,3.98,0,1.53-.24,2.92-.71,4.19-.48,1.26-1.1,2.34-1.88,3.24-.78.9-1.67,1.6-2.68,2.09-1.01.5-2.06.74-3.13.74s-2.11-.26-3.1-.77-1.87-1.23-2.63-2.14c-.76-.91-1.37-2-1.81-3.27s-.67-2.67-.67-4.2Zm1.95,0c0,1.22.17,2.35.5,3.38.33,1.03.79,1.93,1.36,2.68.58.75,1.25,1.35,2.01,1.78s1.57.65,2.42.65,1.63-.21,2.4-.62c.77-.41,1.46-.99,2.05-1.74s1.06-1.63,1.43-2.67c.36-1.03.54-2.16.54-3.38,0-.97-.12-1.96-.37-2.96-.25-1-.64-1.91-1.16-2.73s-1.18-1.48-1.97-2-1.71-.77-2.79-.77-2.01.25-2.82.74c-.81.5-1.47,1.15-2,1.95-.53.81-.92,1.71-1.19,2.71-.27,1-.4,1.99-.4,2.96Z"/>
    </g>
  </g>
</svg>