<?xml version="1.0" encoding="UTF-8"?>
<svg id="Capa_2" data-name="Capa 2" xmlns="http://www.w3.org/2000/svg" viewBox="0 0 687.47 73.92">
  <defs>
    <style>
      .cls-1 {
        fill: #fff;
      }

      .cls-2 {
        fill: #009fb4;
      }
    </style>
  </defs>
  <g id="Capa_1-2" data-name="Capa 1">
    <path class="cls-1" d="m29.65,73.89h0L0,.12h13.93l23.01,55.86h0l-7.29,17.9h0Z"/>
    <path class="cls-2" d="m59.4.12h13.93l29.65,73.76h-13.93l-22.69-55.09-22.69,55.09h-13.93L59.4.12Z"/>
    <g>
      <path class="cls-2" d="m89.25,5.41c.42-.66.84-1.32,1.26-1.96s.83-1.29,1.24-1.95h-3.39v-.96h5.05c-.41.63-.82,1.26-1.23,1.88-.41.62-.82,1.25-1.25,1.87.37.08.72.22,1.05.4.33.19.61.42.84.69.24.27.42.58.56.93.13.35.2.72.2,1.12,0,.45-.09.88-.26,1.28s-.41.75-.71,1.05-.65.54-1.05.71-.83.26-1.29.26c-.49,0-.94-.1-1.36-.29-.42-.19-.78-.45-1.08-.78.11-.11.23-.23.36-.34.12-.11.24-.23.36-.34.21.24.45.43.74.58.29.15.61.22.96.22.32,0,.62-.06.91-.19.29-.12.54-.29.76-.51.22-.22.39-.47.51-.75s.19-.59.19-.91-.06-.62-.19-.91-.29-.53-.51-.74c-.22-.21-.47-.37-.76-.5-.29-.12-.59-.19-.91-.19-.35,0-.68.1-.99.29Z"/>
      <path class="cls-2" d="m95.5,7.58c0-.74.16-1.44.47-2.08.32-.65.72-1.25,1.22-1.81s1.05-1.08,1.66-1.57,1.2-.94,1.78-1.36c.1.12.2.25.3.38.1.13.2.26.3.38-.88.59-1.59,1.14-2.15,1.67-.55.52-.98.98-1.28,1.39.12-.11.27-.21.44-.28s.35-.11.55-.11c.45,0,.88.08,1.29.26.4.17.75.4,1.05.7.3.29.54.64.71,1.04.18.4.26.82.26,1.28s-.09.88-.26,1.28-.41.74-.71,1.04c-.3.29-.65.53-1.05.71-.4.18-.83.26-1.29.26s-.87-.08-1.26-.25-.74-.39-1.04-.67c-.29-.28-.53-.62-.71-1.01s-.28-.8-.29-1.23Zm.99-.12c0,.32.06.62.18.91.12.28.28.53.49.74.21.21.45.38.73.5.28.12.58.19.9.19s.62-.06.91-.19c.29-.12.54-.29.76-.5.22-.21.39-.46.51-.74s.19-.59.19-.91-.06-.62-.19-.91-.29-.53-.51-.74c-.22-.21-.47-.37-.76-.5-.29-.12-.59-.19-.91-.19s-.62.06-.9.19c-.28.12-.52.29-.73.5-.21.21-.37.45-.49.74-.12.28-.18.59-.18.91Z"/>
      <path class="cls-2" d="m103.37,5.55c0-.7.1-1.37.29-1.99s.48-1.17.84-1.63.81-.83,1.32-1.1c.51-.27,1.09-.4,1.73-.4s1.22.14,1.73.42c.51.28.95.66,1.3,1.13.36.48.63,1.03.81,1.65s.28,1.29.28,1.99c0,.76-.12,1.46-.36,2.09-.24.63-.55,1.17-.94,1.62-.39.45-.83.8-1.34,1.05-.51.25-1.03.37-1.57.37s-1.05-.13-1.55-.39c-.5-.26-.94-.61-1.32-1.07-.38-.45-.68-1-.91-1.63s-.33-1.34-.33-2.1Zm.98,0c0,.61.08,1.17.25,1.69.17.52.39.96.68,1.34.29.38.62.67,1.01.89.38.22.79.33,1.21.33s.81-.1,1.2-.31c.39-.21.73-.5,1.02-.87s.53-.82.71-1.33.27-1.08.27-1.69c0-.49-.06-.98-.19-1.48-.12-.5-.32-.96-.58-1.36-.26-.41-.59-.74-.98-1-.39-.26-.86-.39-1.4-.39s-1.01.12-1.41.37-.74.57-1,.98c-.26.4-.46.86-.6,1.36-.13.5-.2.99-.2,1.48Z"/>
    </g>
    <g>
      <path class="cls-1" d="m189.77,52.92c0,11.44-8.92,20.79-19.84,20.79h-38.43V.42h20.37c8.92,0,17.74.1,18.06.1,9.45,0,17.11,7.98,17.11,17.96,0,6.72-3.46,12.49-8.61,15.64,6.62,3.36,11.34,10.5,11.34,18.79Zm-19.84-20.79c7.03,0,12.81-6.2,12.81-13.65s-5.78-13.65-12.81-13.65h-34.02v27.3h34.02Zm15.43,20.79c0-9.03-6.93-16.48-15.43-16.48h-34.02v32.86h34.02c8.5,0,15.43-7.35,15.43-16.38Z"/>
      <path class="cls-1" d="m246.79,73.71l-9.55-25.93h-30.13l-9.66,25.93h-4.51L220.12.52h4.09l27.19,73.18h-4.62ZM222.11,7.24l-13.44,36.33h26.98l-13.54-36.33Z"/>
      <path class="cls-1" d="m286.27,73.92c-20.37,0-36.96-16.59-36.96-36.96S265.9,0,286.27,0c7.03,0,13.86,1.89,19.74,5.67l-2.31,3.57c-5.14-3.25-11.23-5.04-17.43-5.04-17.96,0-32.65,14.7-32.65,32.76s14.7,32.76,32.65,32.76c6.19,0,12.28-1.78,17.43-5.04l2.31,3.57c-5.88,3.78-12.7,5.67-19.74,5.67Z"/>
      <path class="cls-1" d="m369.43,73.71h-5.14l-28.14-40.95-13.75,13.23v27.72h-4.3V.52h4.3v39.58L363.76.52h6.2l-30.66,29.29,30.13,43.89Z"/>
      <path class="cls-1" d="m438.94,37.06c0,20.37-16.48,36.85-36.85,36.85s-36.85-16.48-36.85-36.85S381.71.21,402.08.21s36.85,16.59,36.85,36.85Zm-4.3,0c0-17.95-14.59-32.55-32.55-32.55s-32.55,14.59-32.55,32.55,14.59,32.65,32.55,32.65,32.55-14.7,32.55-32.65Z"/>
      <path class="cls-1" d="m452.17,42.94h30.87v4.3h-30.87v26.46h-4.3V.52h45.88v4.2h-41.58v38.22Z"/>
      <path class="cls-1" d="m508.03,42.94h30.87v4.3h-30.87v26.46h-4.3V.52h45.88v4.2h-41.58v38.22Z"/>
      <path class="cls-1" d="m559.58.52h4.3v73.18h-4.3V.52Z"/>
      <path class="cls-1" d="m609.77,73.92c-20.37,0-36.96-16.59-36.96-36.96S589.4,0,609.77,0c7.03,0,13.86,1.89,19.74,5.67l-2.31,3.57c-5.14-3.25-11.23-5.04-17.43-5.04-17.96,0-32.65,14.7-32.65,32.76s14.7,32.76,32.65,32.76c6.19,0,12.28-1.78,17.43-5.04l2.31,3.57c-5.88,3.78-12.7,5.67-19.74,5.67Z"/>
      <path class="cls-1" d="m645.89,40.95h34.02v4.3h-34.02v24.15h41.58v4.3h-45.88V.52h45.88v4.31h-41.58v36.12Z"/>
    </g>
  </g>
</svg>